<svg width="37" height="37" viewBox="0 0 37 37" fill="none" xmlns="http://www.w3.org/2000/svg">
<circle cx="18.7036" cy="18.4985" r="17.1704" stroke="#1108BB" stroke-width="2"/>
<path d="M18.6385 19.6724C18.6385 20.6844 18.6458 21.4984 18.6605 22.1144C18.6898 22.7157 18.7338 23.1704 18.7925 23.4784C18.8512 23.7864 18.9245 23.9917 19.0125 24.0944C19.1005 24.1971 19.2032 24.2484 19.3205 24.2484C19.4232 24.2484 19.5185 24.2191 19.6065 24.1604C19.6945 24.0871 19.7678 23.9771 19.8265 23.8304C19.8998 23.6837 19.9585 23.4857 20.0025 23.2364C20.0465 22.9724 20.0685 22.6424 20.0685 22.2464V15.7124L20.3985 16.2404C20.2812 16.1377 20.1418 16.0497 19.9805 15.9764C19.8338 15.8884 19.6652 15.8444 19.4745 15.8444C19.3278 15.8444 19.2032 15.8884 19.1005 15.9764C18.9978 16.0644 18.9098 16.2331 18.8365 16.4824C18.7632 16.7317 18.7118 17.1131 18.6825 17.6264C18.6532 18.1397 18.6385 18.8217 18.6385 19.6724ZM19.4745 10.3004C20.2812 10.3004 20.9778 10.4177 21.5645 10.6524C22.1658 10.8871 22.6718 11.2391 23.0825 11.7084C23.5078 12.1631 23.8452 12.7424 24.0945 13.4464C24.3585 14.1504 24.5492 14.9717 24.6665 15.9104C24.7838 16.8491 24.8425 17.9051 24.8425 19.0784C24.8425 20.5011 24.7912 21.6891 24.6885 22.6424C24.6005 23.5811 24.4538 24.3364 24.2485 24.9084C24.0432 25.4657 23.7865 25.8691 23.4785 26.1184C23.1705 26.3531 22.7965 26.4704 22.3565 26.4704C22.0338 26.4704 21.7552 26.4264 21.5205 26.3384C21.2858 26.2504 21.0952 26.1111 20.9485 25.9204C20.8018 25.7297 20.6918 25.4951 20.6185 25.2164C20.5452 24.9231 20.5085 24.5711 20.5085 24.1604C20.5085 24.0577 20.5085 23.9477 20.5085 23.8304C20.5232 23.7131 20.5305 23.5957 20.5305 23.4784L20.7065 24.2924L20.2445 24.2704L20.4865 23.5004C20.4718 23.7937 20.4352 24.0871 20.3765 24.3804C20.3178 24.6591 20.2372 24.9231 20.1345 25.1724C20.0465 25.4217 19.9292 25.6491 19.7825 25.8544C19.6505 26.0451 19.4892 26.1991 19.2985 26.3164C19.1078 26.4191 18.8732 26.4704 18.5945 26.4704C18.2278 26.4704 17.9125 26.3897 17.6485 26.2284C17.3992 26.0524 17.1938 25.7297 17.0325 25.2604C16.8712 24.7911 16.7538 24.1164 16.6805 23.2364C16.6072 22.3417 16.5705 21.1831 16.5705 19.7604C16.5705 18.4697 16.6145 17.4284 16.7025 16.6364C16.8052 15.8297 16.9372 15.2211 17.0985 14.8104C17.2745 14.3851 17.4798 14.0991 17.7145 13.9524C17.9492 13.8057 18.2058 13.7324 18.4845 13.7324C18.7778 13.7324 19.0345 13.8131 19.2545 13.9744C19.4745 14.1211 19.6578 14.3337 19.8045 14.6124C19.9658 14.8764 20.0832 15.1991 20.1565 15.5804L19.7605 14.9644L20.1785 14.8984L20.1125 15.6464C20.0978 15.4117 20.0832 15.1991 20.0685 15.0084C20.0685 14.8177 20.0612 14.6417 20.0465 14.4804C20.0465 14.3044 20.0465 14.1137 20.0465 13.9084C20.2372 13.9231 20.4205 13.9377 20.5965 13.9524C20.7725 13.9524 20.9485 13.9524 21.1245 13.9524C21.2418 13.9524 21.3885 13.9524 21.5645 13.9524C21.7405 13.9524 21.9165 13.9451 22.0925 13.9304C22.0778 14.1797 22.0632 14.4877 22.0485 14.8544C22.0485 15.2064 22.0485 15.6024 22.0485 16.0424C22.0485 16.4824 22.0412 16.9664 22.0265 17.4944C22.0265 18.0077 22.0265 18.5651 22.0265 19.1664C22.0265 19.7531 22.0265 20.3764 22.0265 21.0364C22.0265 21.6964 22.0265 22.3857 22.0265 23.1044C22.0265 23.5884 22.0632 23.9257 22.1365 24.1164C22.2098 24.2924 22.3272 24.3804 22.4885 24.3804C22.6058 24.3804 22.7012 24.3144 22.7745 24.1824C22.8625 24.0357 22.9358 23.7791 22.9945 23.4124C23.0678 23.0311 23.1192 22.5104 23.1485 21.8504C23.1778 21.1757 23.1925 20.3104 23.1925 19.2544C23.1925 18.0517 23.1412 17.0031 23.0385 16.1084C22.9505 15.1991 22.7745 14.4437 22.5105 13.8424C22.2612 13.2264 21.8945 12.7717 21.4105 12.4784C20.9265 12.1704 20.2885 12.0164 19.4965 12.0164C18.7338 12.0164 18.0958 12.1631 17.5825 12.4564C17.0838 12.7351 16.6878 13.1751 16.3945 13.7764C16.1012 14.3631 15.8885 15.1257 15.7565 16.0644C15.6392 16.9884 15.5805 18.1031 15.5805 19.4084C15.5805 20.1564 15.6098 20.9264 15.6685 21.7184C15.7272 22.4957 15.8078 23.2584 15.9105 24.0064C16.0278 24.7397 16.1745 25.4291 16.3505 26.0744C16.1598 26.1037 15.9545 26.1404 15.7345 26.1844C15.5145 26.2137 15.3018 26.2577 15.0965 26.3164C14.8912 26.3604 14.7078 26.4117 14.5465 26.4704C14.3998 25.7664 14.2825 25.0111 14.1945 24.2044C14.1065 23.3977 14.0405 22.5691 13.9965 21.7184C13.9672 20.8677 13.9525 20.0464 13.9525 19.2544C13.9525 17.6997 14.0552 16.3651 14.2605 15.2504C14.4658 14.1211 14.7885 13.1897 15.2285 12.4564C15.6685 11.7231 16.2405 11.1804 16.9445 10.8284C17.6485 10.4764 18.4918 10.3004 19.4745 10.3004Z" fill="#1108BB"/>
</svg>
