<svg xmlns="http://www.w3.org/2000/svg" fill="none" viewBox="0 0 48 72"><path fill="#1108BB" d="M24.34 0C41.987 0 48 12.93 48 39.086 48 64.26 44.606 72 37.042 72c-5.527 0-8.048-2.939-8.145-9.796h-.485C27.442 67.494 25.31 72 20.461 72c-6.303 0-8.922-4.506-8.922-29.878 0-23.02 3.394-26.84 8.437-26.84 3.006 0 5.236 1.959 6.497 5.29l.485-.098c0-1.47-.097-2.743-.097-4.409 1.551.098 3.2.196 4.751.196 1.067 0 2.715 0 4.267-.098-.291 6.955-.291 21.65-.291 40.85 0 4.31.582 5.68 2.036 5.68 1.94 0 3.103-4.015 3.103-22.824 0-21.453-2.52-32.228-16.29-32.228-13.576 0-17.261 9.698-17.261 32.914 0 9.992 1.163 21.16 3.394 29.682-2.618.294-5.818.98-7.952 1.763C.678 62.694 0 50.645 0 39.87 0 12.342 6.788 0 24.34 0Zm-3.782 41.73c0 18.221 1.066 20.376 3.103 20.376 1.842 0 3.297-1.96 3.297-8.914v-27.82c-.776-.392-1.649-.686-2.619-.686-2.52 0-3.781 1.763-3.781 17.045Z"/></svg>