<svg width="36" height="36" viewBox="0 0 36 36" fill="none" xmlns="http://www.w3.org/2000/svg"><circle cx="18" cy="18" r="17" stroke="#1108BB" stroke-width="2"/><path d="M18.072 9.984c4.004 0 5.368 2.904 5.368 8.778 0 5.654-.77 7.392-2.486 7.392-1.254 0-1.826-.66-1.848-2.2h-.11c-.22 1.188-.704 2.2-1.804 2.2-1.43 0-2.024-1.012-2.024-6.71 0-5.17.77-6.028 1.914-6.028.682 0 1.188.44 1.474 1.188l.11-.022c0-.33-.022-.616-.022-.99.352.022.726.044 1.078.044.242 0 .616 0 .968-.022-.066 1.562-.066 4.862-.066 9.174 0 .968.132 1.276.462 1.276.44 0 .704-.902.704-5.126 0-4.818-.572-7.238-3.696-7.238-3.08 0-3.916 2.178-3.916 7.392 0 2.244.264 4.752.77 6.666-.594.066-1.32.22-1.804.396-.44-2.09-.594-4.796-.594-7.216 0-6.182 1.54-8.954 5.522-8.954m-.858 9.372c0 4.092.242 4.576.704 4.576.418 0 .748-.44.748-2.002v-6.248a1.3 1.3 0 0 0-.594-.154c-.572 0-.858.396-.858 3.828" fill="#1108BB"/></svg>