<svg xmlns="http://www.w3.org/2000/svg" width="12" height="22" fill="none"><path fill="#1108BB" d="M6.072 2.984c4.004 0 5.368 2.904 5.368 8.778 0 5.654-.77 7.392-2.486 7.392-1.254 0-1.826-.66-1.848-2.2h-.11c-.22 1.188-.704 2.2-1.804 2.2-1.43 0-2.024-1.012-2.024-6.71 0-5.17.77-6.028 1.914-6.028.682 0 1.188.44 1.474 1.188l.11-.022c0-.33-.022-.616-.022-.99.352.022.726.044 1.078.044.242 0 .616 0 .968-.022-.066 1.562-.066 4.862-.066 9.174 0 .968.132 1.276.462 1.276.44 0 .704-.902.704-5.126C9.79 7.12 9.218 4.7 6.094 4.7c-3.08 0-3.916 2.178-3.916 7.392 0 2.244.264 4.752.77 6.666-.594.066-1.32.22-1.804.396-.44-2.09-.594-4.796-.594-7.216 0-6.182 1.54-8.954 5.522-8.954Zm-.858 9.372c0 4.092.242 4.576.704 4.576.418 0 .748-.44.748-2.002V8.682a1.322 1.322 0 0 0-.594-.154c-.572 0-.858.396-.858 3.828Z"/></svg>