<svg xmlns="http://www.w3.org/2000/svg" fill="none" viewBox="0 0 22 34"><path fill="#1108BB" d="M11.156 0C19.244 0 22 6.106 22 18.457 22 30.346 20.444 34 16.978 34c-2.534 0-3.69-1.388-3.734-4.626h-.222C12.578 31.872 11.6 34 9.378 34c-2.89 0-4.09-2.128-4.09-14.109 0-10.87 1.556-12.675 3.868-12.675 1.377 0 2.4.925 2.977 2.498l.223-.046c0-.694-.045-1.295-.045-2.082.711.047 1.467.093 2.178.093.489 0 1.244 0 1.955-.046-.133 3.284-.133 10.223-.133 19.29 0 2.035.267 2.682.933 2.682.89 0 1.423-1.896 1.423-10.778 0-10.13-1.156-15.219-7.467-15.219-6.222 0-7.911 4.58-7.911 15.543 0 4.718.533 9.992 1.555 14.016-1.2.14-2.666.463-3.644.833C.311 29.605 0 23.916 0 18.827 0 5.83 3.111 0 11.156 0ZM9.422 19.706c0 8.604.49 9.622 1.422 9.622.845 0 1.512-.925 1.512-4.21V11.981c-.356-.185-.756-.324-1.2-.324-1.156 0-1.734.833-1.734 8.05Z"/></svg>