<svg xmlns="http://www.w3.org/2000/svg" width="12" height="22" fill="none">
  <path fill="#1108BB" d="M6.07 2.98c4 0 5.37 2.9 5.37 8.78 0 5.66-.77 7.4-2.49 7.4-1.25 0-1.82-.67-1.84-2.2H7c-.22 1.18-.7 2.2-1.8 2.2-1.44 0-2.03-1.02-2.03-6.72 0-5.17.77-6.02 1.91-6.02.68 0 1.19.44 1.48 1.18l.1-.02-.02-.99c.36.02.73.05 1.08.05.24 0 .62 0 .97-.03-.07 1.57-.07 4.87-.07 9.18 0 .97.14 1.27.47 1.27.44 0 .7-.9.7-5.12 0-4.82-.57-7.24-3.7-7.24-3.08 0-3.91 2.18-3.91 7.4 0 2.24.26 4.74.77 6.66a8.7 8.7 0 0 0-1.8.4c-.45-2.1-.6-4.8-.6-7.22 0-6.18 1.54-8.96 5.52-8.96Zm-.86 9.38c0 4.09.25 4.57.7 4.57.43 0 .76-.44.76-2V8.68a1.32 1.32 0 0 0-.6-.15c-.57 0-.86.4-.86 3.83Z"/>
</svg>
