<svg width="37" height="37" viewBox="0 0 37 37" fill="none" xmlns="http://www.w3.org/2000/svg">
<circle cx="18.2387" cy="18.1704" r="17.1704" fill="#1108BB" stroke="#1108BB" stroke-width="2"/>
<path d="M21.3469 10.3683C21.3469 10.5296 21.3176 10.6909 21.2589 10.8523C21.2002 10.9989 21.0902 11.1309 20.9289 11.2483C20.7676 11.3509 20.5256 11.4389 20.2029 11.5123C19.8802 11.5856 19.4622 11.6223 18.9489 11.6223C18.5382 11.6223 18.1862 11.6003 17.8929 11.5563C17.6142 11.5123 17.3796 11.4536 17.1889 11.3803C17.0129 11.2923 16.8736 11.1969 16.7709 11.0943C16.6829 10.9916 16.6169 10.8816 16.5729 10.7643C16.5436 10.6323 16.5289 10.5003 16.5289 10.3683C16.5289 10.1923 16.5582 10.0383 16.6169 9.90628C16.6756 9.75961 16.7929 9.63495 16.9689 9.53228C17.1449 9.42961 17.3942 9.34895 17.7169 9.29028C18.0396 9.23161 18.4502 9.20228 18.9489 9.20228C19.3596 9.20228 19.7042 9.22428 19.9829 9.26828C20.2616 9.29761 20.4889 9.34895 20.6649 9.42228C20.8409 9.48095 20.9802 9.56161 21.0829 9.66428C21.1856 9.75228 21.2516 9.86228 21.2809 9.99428C21.3249 10.1116 21.3469 10.2363 21.3469 10.3683ZM20.9729 25.9883H16.9029C16.9176 25.4603 16.9249 24.9323 16.9249 24.4043C16.9396 23.8616 16.9469 23.3116 16.9469 22.7543C16.9469 22.1823 16.9469 21.5956 16.9469 20.9943C16.9469 20.3783 16.9469 19.7403 16.9469 19.0803C16.9469 18.4496 16.9469 17.8556 16.9469 17.2983C16.9469 16.7409 16.9396 16.2056 16.9249 15.6923C16.9249 15.1789 16.9176 14.6729 16.9029 14.1743C16.9029 13.6756 16.9029 13.1696 16.9029 12.6563H20.9729C20.9582 13.1696 20.9436 13.6756 20.9289 14.1743C20.9289 14.6729 20.9216 15.1863 20.9069 15.7143C20.9069 16.2276 20.9069 16.7703 20.9069 17.3423C20.9069 17.9143 20.9069 18.5303 20.9069 19.1903C20.9069 19.9383 20.9069 20.6203 20.9069 21.2363C20.9069 21.8523 20.9069 22.4243 20.9069 22.9523C20.9216 23.4656 20.9289 23.9716 20.9289 24.4703C20.9436 24.9689 20.9582 25.4749 20.9729 25.9883Z" fill="#FFF9EE"/>
</svg>
