<svg viewBox="0 0 34 34" fill="none"><path d="M34 17C34 26.3888 26.3888 34 17 34C7.61116 34 0 26.3888 0 17C0 7.61116 7.61116 0 17 0C26.3888 0 34 7.61116 34 17Z" fill="#1108BB"/><path d="M19.2205 26H14.7805C14.8285 23.696 14.8285 21.368 14.8285 18.464C14.8285 15.728 14.8045 13.688 14.7805 11.456H19.2205C19.1485 13.64 19.1485 15.584 19.1485 18.296C19.1485 18.392 19.1485 18.488 19.1485 18.584C19.1485 18.704 19.1485 18.8 19.1485 18.92C19.1485 21.992 19.1485 23.816 19.2205 26ZM19.6285 8.96C19.6285 9.68 19.2685 10.328 17.0125 10.328C14.7325 10.328 14.3725 9.68 14.3725 8.96C14.3725 8.192 14.7805 7.688 17.0125 7.688C19.2205 7.688 19.6285 8.192 19.6285 8.96Z" fill="#FFF9EE"/></svg>