<svg width="42" height="42" viewBox="0 0 42 42" fill="none" xmlns="http://www.w3.org/2000/svg"><path fill="#1108BB" d="M42 21a21 21 0 0 1-21 21A21 21 0 0 1 0 21a21 21 0 0 1 42 0"/><path d="M24.778 36.167h-7.554c.082-3.92.082-7.881.082-12.822 0-4.655-.041-8.126-.082-11.923h7.554c-.122 3.716-.122 7.023-.122 11.638v1.062c0 5.227 0 8.33.122 12.046m.694-28.992c0 1.225-.613 2.328-4.451 2.328-3.879 0-4.492-1.103-4.492-2.328 0-1.307.694-2.164 4.492-2.164 3.757 0 4.451.858 4.451 2.164" fill="#FFF9EE"/></svg>