<svg width="36" height="36" viewBox="0 0 36 36" fill="none" xmlns="http://www.w3.org/2000/svg"><circle cx="18" cy="18" r="17" stroke="#1108BB" stroke-width="2"/><path d="M23.459 11.543c-.693 0-1.25.557-1.25 1.25 0 .692.557 1.25 1.25 1.25s1.25-.558 1.25-1.25c0-.693-.557-1.25-1.25-1.25M18 13c-2.758 0-5 2.242-5 5s2.242 5 5 5 5-2.242 5-5-2.242-5-5-5m0 8.205A3.21 3.21 0 0 1 14.796 18 3.21 3.21 0 0 1 18 14.796 3.21 3.21 0 0 1 21.204 18 3.21 3.21 0 0 1 18 21.204" fill="#1108BB"/><path d="M21.993 28h-7.985A6.013 6.013 0 0 1 8 21.993v-7.985A6.013 6.013 0 0 1 14.008 8h7.985A6.013 6.013 0 0 1 28 14.008v7.985A6.013 6.013 0 0 1 21.993 28M14.008 9.88a4.13 4.13 0 0 0-4.127 4.127v7.986a4.13 4.13 0 0 0 4.127 4.126h7.985a4.13 4.13 0 0 0 4.126-4.126v-7.985a4.13 4.13 0 0 0-4.126-4.127z" fill="#1108BB"/></svg>