<svg xmlns="http://www.w3.org/2000/svg" width="20" height="20" fill="none"><path fill="#1108BB" d="M15.459 3.542c-.693 0-1.25.558-1.25 1.25 0 .693.557 1.25 1.25 1.25s1.25-.557 1.25-1.25c0-.692-.557-1.25-1.25-1.25ZM10 5c-2.758 0-5 2.242-5 5s2.242 5 5 5 5-2.242 5-5-2.242-5-5-5Zm0 8.204A3.21 3.21 0 0 1 6.795 10 3.21 3.21 0 0 1 10 6.795 3.21 3.21 0 0 1 13.204 10 3.21 3.21 0 0 1 10 13.204Z"/><path fill="#1108BB" d="M13.992 20H6.007A6.013 6.013 0 0 1 0 13.992V6.007A6.013 6.013 0 0 1 6.007 0h7.986A6.013 6.013 0 0 1 20 6.007v7.986A6.013 6.013 0 0 1 13.992 20ZM6.007 1.88a4.13 4.13 0 0 0-4.126 4.127v7.986a4.13 4.13 0 0 0 4.126 4.126h7.986a4.13 4.13 0 0 0 4.126-4.127V6.007a4.13 4.13 0 0 0-4.127-4.126H6.007Z"/></svg>