<svg xmlns="http://www.w3.org/2000/svg" fill="none" viewBox="0 0 72 72"><path fill="#1108BB" d="M55.075 12.874a4.208 4.208 0 0 0-4.218 4.218 4.208 4.208 0 0 0 4.218 4.218 4.208 4.208 0 0 0 4.218-4.218 4.208 4.208 0 0 0-4.218-4.218ZM36.295 18.269c-9.779 0-17.731 7.952-17.731 17.731 0 9.78 7.952 17.731 17.731 17.731 9.78 0 17.732-7.952 17.732-17.731 0-9.78-7.953-17.731-17.732-17.731Zm0 29.095c-6.26 0-11.364-5.104-11.364-11.364 0-6.26 5.104-11.364 11.364-11.364 6.26 0 11.364 5.104 11.364 11.364 0 6.26-5.104 11.364-11.364 11.364Z"/><path fill="#1108BB" d="M50.373 72H21.627C9.699 72 0 62.301 0 50.373V21.627C0 9.699 9.699 0 21.627 0h28.746C62.301 0 72 9.699 72 21.627v28.746C72 62.301 62.301 72 50.373 72ZM21.627 6.77c-8.194 0-14.857 6.663-14.857 14.857v28.746c0 8.194 6.663 14.857 14.857 14.857h28.746c8.194 0 14.857-6.663 14.857-14.857V21.627c0-8.194-6.663-14.857-14.857-14.857H21.627Z"/></svg>