<svg xmlns="http://www.w3.org/2000/svg" fill="none" viewBox="0 0 34 34"><path fill="#1108BB" d="M26.008 6.08a1.987 1.987 0 0 0-1.992 1.991c0 1.104.888 1.992 1.992 1.992a1.987 1.987 0 0 0 1.991-1.992 1.987 1.987 0 0 0-1.991-1.992ZM17.14 8.627c-4.619 0-8.374 3.755-8.374 8.373 0 4.618 3.755 8.373 8.373 8.373 4.618 0 8.373-3.755 8.373-8.373 0-4.618-3.755-8.373-8.373-8.373Zm0 13.74A5.376 5.376 0 0 1 11.772 17a5.376 5.376 0 0 1 5.366-5.366A5.376 5.376 0 0 1 22.506 17a5.376 5.376 0 0 1-5.367 5.366Z"/><path fill="#1108BB" d="M23.787 34H10.213C4.58 34 0 29.42 0 23.787V10.213C0 4.58 4.58 0 10.213 0h13.574C29.42 0 34 4.58 34 10.213v13.574C34 29.42 29.42 34 23.787 34ZM10.213 3.197a7.022 7.022 0 0 0-7.016 7.016v13.574a7.022 7.022 0 0 0 7.016 7.016h13.574a7.022 7.022 0 0 0 7.016-7.016V10.213a7.022 7.022 0 0 0-7.016-7.016H10.213Z"/></svg>