<svg width="37" height="37" viewBox="0 0 37 37" fill="none" xmlns="http://www.w3.org/2000/svg">
<circle cx="18.1704" cy="18.8286" r="17.1704" stroke="#1108BB" stroke-width="2"/>
<g clip-path="url(#clip0_119_669)">
<path d="M23.3553 12.5425C22.7201 12.5425 22.209 13.0536 22.209 13.6888C22.209 14.3241 22.7201 14.8352 23.3553 14.8352C23.9906 14.8352 24.5017 14.3241 24.5017 13.6888C24.5017 13.0536 23.9906 12.5425 23.3553 12.5425Z" fill="#1108BB"/>
<path d="M18.2507 14.0098C15.5929 14.0098 13.4316 16.171 13.4316 18.8288C13.4316 21.4865 15.5929 23.6478 18.2507 23.6478C20.9084 23.6478 23.0697 21.4865 23.0697 18.8288C23.0697 16.171 20.9084 14.0098 18.2507 14.0098ZM18.2507 21.9173C16.5494 21.9173 15.1621 20.53 15.1621 18.8288C15.1621 17.1275 16.5494 15.7402 18.2507 15.7402C19.9519 15.7402 21.3392 17.1275 21.3392 18.8288C21.3392 20.53 19.9519 21.9173 18.2507 21.9173Z" fill="#1108BB"/>
<path d="M22.0771 28.613H14.2645C11.0226 28.613 8.38672 25.9772 8.38672 22.7353V14.9227C8.38672 11.6808 11.0226 9.04492 14.2645 9.04492H22.0771C25.319 9.04492 27.9548 11.6808 27.9548 14.9227V22.7353C27.9548 25.9772 25.319 28.613 22.0771 28.613ZM14.2645 10.8849C12.0375 10.8849 10.2267 12.6957 10.2267 14.9227V22.7353C10.2267 24.9623 12.0375 26.773 14.2645 26.773H22.0771C24.3041 26.773 26.1148 24.9623 26.1148 22.7353V14.9227C26.1148 12.6957 24.3041 10.8849 22.0771 10.8849H14.2645Z" fill="#1108BB"/>
</g>
<defs>
<clipPath id="clip0_119_669">
<rect width="19.5681" height="19.5681" fill="white" transform="translate(8.38672 9.04492)"/>
</clipPath>
</defs>
</svg>
