<svg xmlns="http://www.w3.org/2000/svg" width="20" height="20" fill="none">
  <path fill="#1108BB" d="M15.46 3.54a1.25 1.25 0 1 0 0 2.5 1.25 1.25 0 1 0 0-2.5ZM10 5a5 5 0 1 0 0 10 5 5 0 0 0 0-10Zm0 8.2A3.21 3.21 0 0 1 6.8 10 3.21 3.21 0 0 1 10 6.8a3.21 3.21 0 0 1 3.2 3.2 3.21 3.21 0 0 1-3.2 3.2Z"/>
  <path fill="#1108BB" d="M14 20H6a6.01 6.01 0 0 1-6-6V6a6.01 6.01 0 0 1 6-6h8a6.01 6.01 0 0 1 6 6v8a6.01 6.01 0 0 1-6 6ZM6 1.88a4.13 4.13 0 0 0-4.12 4.13v7.98a4.13 4.13 0 0 0 4.13 4.13h7.98a4.13 4.13 0 0 0 4.13-4.13V6.01a4.13 4.13 0 0 0-4.13-4.13H6.01Z"/>
</svg>
