<svg width="37" height="37" viewBox="0 0 37 37" fill="none" xmlns="http://www.w3.org/2000/svg">
<circle cx="18.2368" cy="18.8286" r="17.1704" stroke="#1108BB" stroke-width="2"/>
<g clip-path="url(#clip0_119_675)">
<path d="M10.1532 15.0771H13.9253V27.2153H10.1532V15.0771ZM12.0393 9.04492C13.2445 9.04492 14.2197 10.0226 14.2197 11.2309C14.2197 12.4392 13.2445 13.4169 12.0393 13.4169C10.834 13.4169 9.84961 12.4392 9.84961 11.2309C9.84961 10.0226 10.8248 9.04492 12.0393 9.04492Z" fill="#1108BB"/>
<path d="M16.2807 15.0773H19.8872V16.7376H19.9332C20.4392 15.7783 21.6628 14.7729 23.4936 14.7729C27.3025 14.7729 28.0109 17.2818 28.0109 20.5561V27.2155H24.2481V21.3124C24.2481 19.9012 24.2205 18.0934 22.2884 18.0934C20.3564 18.0934 20.0344 19.6245 20.0344 21.211V27.2155H16.2715V15.0773H16.2807Z" fill="#1108BB"/>
</g>
<defs>
<clipPath id="clip0_119_675">
<rect width="18.1704" height="18.1704" fill="white" transform="translate(9.84961 9.04492)"/>
</clipPath>
</defs>
</svg>
