<svg xmlns="http://www.w3.org/2000/svg" width="20" height="20" fill="none">
  <g fill="#1108BB" clip-path="url(#a)">
    <path d="M.33 6.64H4.5V20H.33V6.64ZM2.41 0a2.4 2.4 0 0 1 2.4 2.4 2.4 2.4 0 0 1-2.4 2.41A2.41 2.41 0 0 1 0 2.41 2.4 2.4 0 0 1 2.41 0Zm4.67 6.64h3.97v1.83h.05a4.35 4.35 0 0 1 3.92-2.17c4.19 0 4.97 2.77 4.97 6.37V20h-4.14v-6.5c0-1.55-.03-3.54-2.16-3.54-2.12 0-2.48 1.69-2.48 3.43V20H7.07V6.64Z"/>
  </g>
  <defs>
    <clipPath id="a">
      <path fill="#fff" d="M0 0h20v20H0z"/>
    </clipPath>
  </defs>
</svg>
