<svg xmlns="http://www.w3.org/2000/svg" width="20" height="20" fill="none"><g fill="#1108BB" clip-path="url(#a)"><path d="M.334 6.64h4.152V20H.334V6.64ZM2.41 0c1.327 0 2.4 1.076 2.4 2.406a2.402 2.402 0 0 1-2.4 2.406A2.41 2.41 0 0 1 0 2.406 2.404 2.404 0 0 1 2.41 0ZM7.078 6.64h3.97v1.827h.05c.558-1.056 1.904-2.162 3.92-2.162 4.192 0 4.972 2.761 4.972 6.365V20h-4.142v-6.497c0-1.554-.03-3.543-2.157-3.543-2.126 0-2.48 1.685-2.48 3.431v6.61H7.067V6.64h.01Z"/></g><defs><clipPath id="a"><path fill="#fff" d="M0 0h20v20H0z"/></clipPath></defs></svg>