<svg width="36" height="36" viewBox="0 0 36 36" fill="none" xmlns="http://www.w3.org/2000/svg"><circle cx="18" cy="18" r="17" stroke="#1108BB" stroke-width="2"/><path d="M10.278 14.976h3.452V27h-3.452zM12.004 9C13.107 9 14 9.969 14 11.165s-.893 2.166-1.996 2.166S10 12.362 10 11.166 10.893 9 12.004 9m4.005 6.294h3.379v1.6h.043c.474-.924 1.62-1.894 3.336-1.894C26.337 15 27 17.42 27 20.578V27h-3.526v-5.693c0-1.361-.026-3.105-1.836-3.105s-2.112 1.477-2.112 3.007V27H16V15.294z" fill="#1108BB"/></svg>