<svg width="37" height="37" viewBox="0 0 37 37" fill="none" xmlns="http://www.w3.org/2000/svg">
<circle cx="18.7036" cy="18.8286" r="17.1704" stroke="#1108BB" stroke-width="2"/>
<g clip-path="url(#clip0_119_660)">
<path d="M27.0891 16.9641C26.9282 16.9787 26.7674 16.986 26.6065 16.986C24.8444 16.986 23.192 16.0956 22.2269 14.6212V22.6645C22.2269 25.949 19.5582 28.613 16.268 28.613C12.9778 28.613 10.3164 25.949 10.3164 22.6718C10.3164 19.3946 12.9851 16.7233 16.2753 16.7233C16.3996 16.7233 16.5239 16.7379 16.6409 16.7452V19.672C16.5166 19.6574 16.3996 19.6355 16.2753 19.6355C14.5937 19.6355 13.2337 20.9931 13.2337 22.6718C13.2337 24.3505 14.5937 25.7081 16.2753 25.7081C17.957 25.7081 19.4339 24.387 19.4339 22.7083L19.4631 9.04492H22.2708C22.534 11.5557 24.5666 13.5191 27.0891 13.7089V16.9641Z" fill="#1108BB"/>
</g>
<defs>
<clipPath id="clip0_119_660">
<rect width="16.7727" height="19.5681" fill="white" transform="translate(10.3164 9.04492)"/>
</clipPath>
</defs>
</svg>
