<svg xmlns="http://www.w3.org/2000/svg" width="17" height="20" fill="none"><g clip-path="url(#a)"><path fill="#1108BB" d="M17 8.094a5.301 5.301 0 0 1-4.928-2.395v8.221c0 3.357-2.705 6.08-6.04 6.08S0 17.277 0 13.928c0-3.35 2.705-6.08 6.04-6.08.126 0 .252.015.37.022v2.992c-.126-.015-.244-.038-.37-.038a3.09 3.09 0 0 0-3.083 3.104A3.09 3.09 0 0 0 6.04 17.03c1.704 0 3.201-1.35 3.201-3.066L9.271 0h2.845A5.327 5.327 0 0 0 17 4.767v3.327Z"/></g><defs><clipPath id="a"><path fill="#fff" d="M0 0h17v20H0z"/></clipPath></defs></svg>