<svg width="37" height="37" viewBox="0 0 37 37" fill="none" xmlns="http://www.w3.org/2000/svg">
<circle cx="18.1704" cy="18.4985" r="17.1704" stroke="#1108BB" stroke-width="2"/>
<path d="M19.2714 27.5374L23.6424 10.5547C23.7011 10.3273 23.6233 10.1233 23.4446 10.0352C23.2659 9.94708 23.0276 9.99837 22.8418 10.1599L8.8477 22.3966C8.66032 22.5606 8.56384 22.8084 8.61087 23.0166C8.65871 23.2285 8.8583 23.3529 9.08326 23.3178L15.7499 22.2755L18.2609 27.844C18.2988 27.9277 18.3619 27.9912 18.4381 28.0288C18.5406 28.0794 18.6671 28.0866 18.8011 28.0423C19.0217 27.9693 19.2111 27.7674 19.2714 27.5374ZM16.6188 21.3602C16.5816 21.2802 16.521 21.2178 16.4447 21.1802C16.3685 21.1426 16.2767 21.1298 16.1804 21.144L10.7434 21.9877L22.2514 11.9332L18.6545 25.9121L16.6808 21.4825L16.6188 21.3602Z" fill="#1108BB" stroke="#1108BB" stroke-width="0.940039"/>
</svg>
