<svg xmlns="http://www.w3.org/2000/svg" fill="none" viewBox="0 0 41.4 58"><path fill="#1108BB" d="M29 55.1 40.2 3c.2-.7 0-1.3-.5-1.6s-1-.1-1.6.4L1.7 39.3c-.5.5-.7 1.3-.6 2 .1.6.6 1 1.2.9L19.7 39l6.6 17c0 .3.2.5.4.6.3.2.6.2 1 0 .6-.2 1-.8 1.2-1.5Zm-7-19a1 1 0 0 0-.5-.5 1 1 0 0 0-.7-.1L6.7 38l30-30.9-9.4 43-5.1-13.7z"/><path fill="#1108BB" d="M37.7.7c.7-.6 1.7-1 2.6-.4 1 .6 1.3 1.9 1 3L30 55.4c-.2 1-.9 2-1.7 2.4H28a2 2 0 0 1-1.6 0h-.1c-.5-.3-.8-.7-1-1.2l-6.2-16.3-16.6 3c-1 .3-2.1-.4-2.4-1.7-.3-1.3.2-2.5 1-3.2L37.4.8zm1.5 1.8a.7.7 0 0 0-.3.2L2.4 40.3a1 1 0 0 0-.3.6l18.3-3.3 6.8 17.9a.3.3 0 0 0 .2 0l.5-.7L39.3 2.7v-.1a.4.4 0 0 0 0-.1M27.5 54l-6.4-16.8-.2-.4L3.2 40 38.6 3.6zM10 36.2l10.6-2h.2c.3 0 .6 0 1 .2h.1l.2.2c.3.2.6.6.7 1l.2.4 4 10.3 7.7-35.5z"/></svg>