<svg xmlns="http://www.w3.org/2000/svg" fill="none" viewBox="0 0 41.429 58.001" width="42" height="58"><path fill="#1108BB" d="M28.912 55.112 40.319 2.977c0.153 -0.698 -0.05 -1.325 -0.516 -1.595s-1.088 -0.114 -1.573 0.383L1.71 39.33c-0.489 0.504 -0.741 1.264 -0.618 1.903 0.124 0.65 0.646 1.032 1.233 0.925l17.398 -3.199L26.274 56.053c0.099 0.257 0.263 0.452 0.462 0.568 0.268 0.155 0.597 0.177 0.947 0.041 0.576 -0.224 1.071 -0.845 1.228 -1.55Zm-6.923 -18.964a1.077 1.077 0 0 0 -0.454 -0.553 1.019 1.019 0 0 0 -0.69 -0.111L6.658 38.075 36.689 7.209 27.303 50.122 22.152 36.524z"/><path fill="#1108BB" d="M37.67 0.692c0.7 -0.634 1.702 -0.953 2.603 -0.429 1.02 0.592 1.322 1.897 1.074 3.026L29.941 55.424l-0.001 0.006c-0.232 1.04 -0.907 1.941 -1.751 2.345l-0.171 0.075c-0.537 0.209 -1.119 0.214 -1.645 -0.051l-0.104 -0.057c-0.42 -0.244 -0.76 -0.652 -0.96 -1.172v-0.002l-6.221 -16.228L2.49 43.393c-1.042 0.191 -2.102 -0.477 -2.405 -1.757l-0.027 -0.125c-0.227 -1.18 0.239 -2.382 0.954 -3.119h0.001L37.531 0.824 37.535 0.823zm1.571 1.816a0.696 0.696 0 0 0 -0.315 0.199L2.411 40.271c-0.238 0.245 -0.291 0.53 -0.285 0.655 0.008 0 0.022 0.003 0.036 0l18.196 -3.347 6.871 17.925a0.331 0.331 0 0 0 0.124 -0.026l0.086 -0.042c0.2 -0.119 0.389 -0.375 0.447 -0.639L39.291 2.666l0.015 -0.089a0.414 0.414 0 0 0 0 -0.078 0.249 0.249 0 0 0 -0.065 0.009M27.572 53.902l-6.377 -16.837 -0.149 -0.347q-0.017 0 -0.045 0.002h-0.001L3.202 39.969 38.571 3.617zm-17.458 -17.721 10.57 -1.931 0.008 -0.001 0.164 -0.022c0.331 -0.031 0.671 0.018 0.991 0.166l0.158 0.083 0.154 0.099c0.337 0.24 0.604 0.59 0.776 1.008h0.001l0.162 0.375 0.012 0.028 0.011 0.029 3.911 10.327 7.775 -35.543z"/></svg>