<svg width="36" height="36" viewBox="0 0 36 36" fill="none" xmlns="http://www.w3.org/2000/svg"><circle cx="18" cy="18" r="17" stroke="#1108BB" stroke-width="2"/><path d="m19.066 26.086 4.371-16.982c.059-.228-.019-.432-.198-.52-.178-.088-.416-.037-.602.125L8.643 20.945c-.188.164-.284.412-.237.62.048.212.247.337.472.302l6.667-1.043 2.51 5.569a.38.38 0 0 0 .178.185.48.48 0 0 0 .363.013.75.75 0 0 0 .47-.505Zm-2.652-6.177a.37.37 0 0 0-.174-.18.45.45 0 0 0-.265-.036l-5.437.843 11.508-10.054-3.597 13.979-1.973-4.43z" fill="#1108BB" stroke="#1108BB"/></svg>