<svg width="37" height="37" viewBox="0 0 37 37" fill="none" xmlns="http://www.w3.org/2000/svg">
<circle cx="18.1704" cy="18.1704" r="17.1704" stroke="#1108BB" stroke-width="2"/>
<g clip-path="url(#clip0_119_664)">
<path d="M8.38672 27.9548L9.79014 22.7208C8.99274 21.2889 8.57809 19.6821 8.57809 18.0515C8.57809 12.7219 12.9239 8.38672 18.2665 8.38672C23.609 8.38672 27.9548 12.7219 27.9548 18.0515C27.9548 23.381 23.609 27.7162 18.2665 27.7162C16.6637 27.7162 15.0769 27.3105 13.6575 26.5469L8.38672 27.9548ZM13.9206 24.5821L14.2556 24.781C15.4756 25.5048 16.863 25.8867 18.2665 25.8867C22.5963 25.8867 26.1208 22.3708 26.1208 18.0515C26.1208 13.7322 22.5963 10.2163 18.2665 10.2163C13.9366 10.2163 10.4121 13.7322 10.4121 18.0515C10.4121 19.4753 10.8108 20.8833 11.5604 22.1162L11.7677 22.4503L10.9862 25.3696L13.9286 24.5821H13.9206Z" fill="#1108BB"/>
<path fill-rule="evenodd" clip-rule="evenodd" d="M21.8711 19.3957C21.4724 19.157 20.954 18.8945 20.4836 19.0854C20.1248 19.2366 19.8935 19.7934 19.6623 20.0798C19.5427 20.2309 19.3991 20.2468 19.2157 20.1752C17.8601 19.6343 16.8235 18.7354 16.082 17.4945C15.9544 17.3036 15.9783 17.1525 16.1298 16.9695C16.3531 16.707 16.6401 16.4048 16.6959 16.0468C16.7597 15.6889 16.5923 15.2752 16.4408 14.957C16.2494 14.5514 16.0421 13.9707 15.6354 13.74C15.2606 13.5252 14.7663 13.6445 14.4313 13.915C13.8572 14.3843 13.5781 15.1161 13.5861 15.8479C13.5861 16.0548 13.61 16.2616 13.6658 16.4604C13.7855 16.9377 14.0007 17.3911 14.2559 17.8127C14.4473 18.1309 14.6466 18.4491 14.8699 18.7434C15.5955 19.7218 16.4966 20.5729 17.5332 21.2172C18.0515 21.5354 18.6177 21.8138 19.1998 22.0047C19.8536 22.2195 20.4357 22.4422 21.1374 22.307C21.8711 22.1638 22.5967 21.7104 22.8917 21.0025C22.9794 20.7957 23.0193 20.557 22.9715 20.3343C22.8678 19.8729 22.2538 19.6025 21.879 19.3798L21.8711 19.3957Z" fill="#1108BB"/>
</g>
<defs>
<clipPath id="clip0_119_664">
<rect width="19.5681" height="19.5681" fill="white" transform="translate(8.38672 8.38672)"/>
</clipPath>
</defs>
</svg>
