<svg xmlns="http://www.w3.org/2000/svg" width="20" height="20" fill="none">
  <g fill="#1108BB" clip-path="url(#a)">
    <path d="m0 20 1.43-5.35A9.8 9.8 0 0 1 .2 9.88a9.9 9.9 0 0 1 19.8 0 9.9 9.9 0 0 1-9.9 9.88 9.96 9.96 0 0 1-4.71-1.2L0 20Zm5.66-3.45.34.2a8.04 8.04 0 0 0 4.1 1.14c4.42 0 8.02-3.6 8.02-8.01a8.03 8.03 0 1 0-14.88 4.15l.22.34-.8 2.99 3-.8Z"/>
    <path fill-rule="evenodd" d="M13.78 11.25c-.4-.24-.93-.51-1.42-.31-.36.15-.6.72-.84 1.01-.12.16-.26.17-.45.1a6.4 6.4 0 0 1-3.2-2.74c-.13-.2-.11-.35.04-.54.23-.27.53-.57.58-.94.07-.37-.1-.79-.26-1.11-.2-.42-.4-1.01-.82-1.25-.38-.22-.89-.1-1.23.18a2.5 2.5 0 0 0-.86 1.98c0 .2.02.42.08.62.12.49.34.95.6 1.38.2.33.4.65.63.95a9.95 9.95 0 0 0 2.72 2.53c.53.33 1.1.61 1.7.8.67.23 1.26.46 1.98.32.75-.15 1.5-.61 1.8-1.34.09-.2.13-.45.08-.68-.1-.47-.74-.75-1.12-.97v.01Z" clip-rule="evenodd"/>
  </g>
  <defs>
    <clipPath id="a">
      <path fill="#fff" d="M0 0h20v20H0z"/>
    </clipPath>
  </defs>
</svg>
