<svg xmlns="http://www.w3.org/2000/svg" fill="none" viewBox="0 0 42 42" width="42" height="42"><path fill="#1108BB" d="m0 42 3.012-11.234A20.6 20.6 0 0 1 .411 20.743C.411 9.305 9.738 0 21.205 0S42 9.305 42 20.744s-9.328 20.743-20.795 20.743c-3.44 0-6.846-.87-9.892-2.509zm11.878-7.239.719.427a16.9 16.9 0 0 0 8.609 2.373c9.294 0 16.858-7.546 16.858-16.817S30.499 3.927 21.206 3.927 4.348 11.474 4.348 20.744c0 3.056.856 6.078 2.465 8.724l.445.718-1.677 6.265 6.313-1.69h-.018Z"/><path fill="#1108BB" fill-rule="evenodd" d="M28.942 23.629c-.856-.512-1.968-1.076-2.978-.666-.77.324-1.266 1.519-1.763 2.134-.257.324-.565.359-.958.205-2.91-1.161-5.135-3.09-6.726-5.753-.274-.41-.223-.734.102-1.127.479-.564 1.095-1.212 1.216-1.98.137-.768-.223-1.656-.548-2.339-.411-.87-.855-2.117-1.728-2.612-.804-.461-1.866-.204-2.584.376-1.232 1.007-1.832 2.578-1.814 4.149 0 .444.051.888.171 1.315.257 1.024.719 1.997 1.267 2.903.411.682.838 1.366 1.318 1.997 1.558 2.1 3.491 3.927 5.717 5.31 1.112.683 2.328 1.281 3.576 1.691 1.404.461 2.653.939 4.159.649 1.574-.307 3.132-1.28 3.765-2.8.188-.443.274-.956.171-1.434-.222-.991-1.54-1.571-2.345-2.049l-.017.035Z" clip-rule="evenodd"/></svg>