<svg width="36" height="36" viewBox="0 0 36 36" fill="none" xmlns="http://www.w3.org/2000/svg"><circle cx="18" cy="18" r="17" stroke="#1108BB" stroke-width="2"/><g clip-path="url(#a)" fill="#1108BB"><path d="m8 28 1.434-5.35a9.8 9.8 0 0 1-1.238-4.772C8.196 12.431 12.637 8 18.098 8S28 12.43 28 17.878c0 5.447-4.442 9.878-9.902 9.878a9.96 9.96 0 0 1-4.71-1.195zm5.656-3.447.342.203a8.04 8.04 0 0 0 4.1 1.13c4.425 0 8.028-3.593 8.028-8.008S22.522 9.87 18.097 9.87s-8.028 3.593-8.028 8.008c0 1.455.408 2.894 1.174 4.154l.212.342-.8 2.984 3.008-.805z"/><path fill-rule="evenodd" clip-rule="evenodd" d="M21.782 19.252c-.407-.244-.937-.512-1.418-.317-.366.154-.603.723-.84 1.016-.121.155-.268.17-.456.098-1.385-.553-2.445-1.472-3.202-2.74-.13-.195-.106-.35.049-.537.228-.268.521-.577.578-.943.065-.366-.106-.788-.26-1.114-.196-.414-.408-1.008-.824-1.244-.383-.22-.888-.097-1.23.18-.587.479-.873 1.227-.864 1.975 0 .211.024.423.081.626.122.488.342.951.603 1.382.196.325.4.65.628.951.741 1 1.662 1.87 2.722 2.529.53.325 1.108.61 1.703.805.669.22 1.263.447 1.98.308.75-.146 1.492-.61 1.794-1.333.09-.211.13-.455.081-.683-.106-.471-.733-.748-1.116-.975z"/></g><defs><clipPath id="a"><path fill="#fff" d="M8 8h20v20H8z"/></clipPath></defs></svg>