<svg xmlns="http://www.w3.org/2000/svg" width="20" height="20" fill="none"><g fill="#1108BB" clip-path="url(#a)"><path d="m0 20 1.434-5.35A9.805 9.805 0 0 1 .196 9.878C.196 4.431 4.637 0 10.098 0 15.558 0 20 4.43 20 9.878c0 5.447-4.442 9.878-9.902 9.878a9.96 9.96 0 0 1-4.71-1.195L0 20Zm5.656-3.447.342.203a8.043 8.043 0 0 0 4.1 1.13c4.425 0 8.027-3.593 8.027-8.008 0-4.415-3.602-8.008-8.027-8.008-4.426 0-8.028 3.593-8.028 8.008 0 1.455.408 2.894 1.174 4.155l.212.341-.8 2.984 3.008-.805h-.008Z"/><path fill-rule="evenodd" d="M13.782 11.252c-.407-.244-.937-.512-1.418-.317-.366.154-.603.723-.84 1.016-.121.155-.268.17-.455.098-1.386-.553-2.445-1.472-3.203-2.74-.13-.195-.106-.35.048-.537.229-.268.522-.577.58-.943.064-.366-.107-.788-.262-1.114-.195-.414-.407-1.008-.823-1.244-.383-.22-.888-.097-1.23.18-.587.479-.873 1.227-.864 1.975 0 .211.024.423.081.626.122.488.342.951.603 1.382.196.325.4.65.628.951a9.95 9.95 0 0 0 2.722 2.529c.53.325 1.108.61 1.703.805.668.22 1.263.447 1.98.308.75-.146 1.492-.61 1.794-1.333.09-.211.13-.455.081-.683-.106-.471-.733-.748-1.116-.975l-.009.016Z" clip-rule="evenodd"/></g><defs><clipPath id="a"><path fill="#fff" d="M0 0h20v20H0z"/></clipPath></defs></svg>