<svg xmlns="http://www.w3.org/2000/svg" fill="none" viewBox="0 0 34 34"><path fill="#1108BB" d="m0 34 2.438-9.094a16.669 16.669 0 0 1-2.105-8.113C.333 7.533 7.883 0 17.166 0 26.45 0 34 7.533 34 16.793c0 9.26-7.55 16.792-16.834 16.792-2.785 0-5.542-.705-8.008-2.031L0 34Zm9.615-5.86.582.345a13.672 13.672 0 0 0 6.97 1.922c7.522 0 13.646-6.11 13.646-13.614 0-7.505-6.123-13.614-13.647-13.614-7.523 0-13.647 6.109-13.647 13.614 0 2.474.693 4.92 1.995 7.062l.36.58-1.357 5.073 5.112-1.368h-.014Z"/><path fill="#1108BB" fill-rule="evenodd" d="M23.429 19.128c-.693-.415-1.593-.87-2.41-.54-.624.263-1.026 1.23-1.428 1.729-.208.262-.457.29-.776.165-2.355-.94-4.156-2.501-5.445-4.657-.221-.332-.18-.595.083-.913.388-.456.887-.98.984-1.603.11-.622-.18-1.34-.443-1.893-.333-.705-.693-1.714-1.4-2.115-.65-.373-1.51-.166-2.092.304-.997.816-1.482 2.087-1.468 3.359 0 .359.041.718.138 1.064.208.83.582 1.617 1.025 2.35.333.552.68 1.105 1.067 1.616 1.261 1.7 2.827 3.18 4.628 4.299.9.553 1.884 1.037 2.895 1.368 1.137.373 2.148.76 3.367.525 1.275-.248 2.536-1.036 3.048-2.266.153-.36.222-.774.139-1.161-.18-.802-1.247-1.272-1.898-1.659l-.014.028Z" clip-rule="evenodd"/></svg>