<svg width="145" height="194" viewBox="0 0 145 194" fill="none" xmlns="http://www.w3.org/2000/svg">
<path d="M126.044 164.728L126.044 159.61C127.019 159.61 127.966 159.61 128.887 159.61C129.862 159.61 130.782 159.61 131.649 159.61C132.569 159.61 133.436 159.61 134.248 159.61C135.115 159.61 135.981 159.61 136.848 159.61C137.714 159.556 138.554 159.529 139.366 159.529C139.366 159.962 139.339 160.504 139.285 161.153C139.285 161.803 139.285 162.453 139.285 163.103C139.285 163.753 139.285 164.321 139.285 164.809C138.526 164.809 137.714 164.809 136.848 164.809C135.981 164.755 135.115 164.728 134.248 164.728C133.436 164.728 132.569 164.728 131.649 164.728C130.728 164.728 129.808 164.728 128.887 164.728C127.966 164.728 127.019 164.728 126.044 164.728ZM139.691 193.077L121.089 193.077C121.197 190.695 121.251 187.96 121.251 184.873C121.251 181.786 121.251 178.402 121.251 174.719C121.251 170.982 121.251 166.948 121.251 162.616C121.251 159.366 121.251 156.252 121.251 153.274C121.251 150.241 121.251 147.425 121.251 144.826C121.305 142.172 121.305 139.762 121.251 137.596C121.251 135.43 121.224 133.616 121.17 132.154L139.691 132.154C139.691 132.479 139.691 132.885 139.691 133.372C139.691 133.806 139.691 134.239 139.691 134.672C139.691 135.159 139.691 135.674 139.691 136.215C139.691 136.757 139.691 137.217 139.691 137.596C138.662 137.542 137.66 137.515 136.685 137.515C135.71 137.461 134.736 137.434 133.761 137.434C132.786 137.434 131.838 137.434 130.918 137.434C129.997 137.434 129.104 137.434 128.237 137.434C127.425 137.434 126.64 137.434 125.881 137.434L127.181 134.266C127.181 135.999 127.181 137.786 127.181 139.627C127.181 141.468 127.154 143.364 127.1 145.313C127.1 147.209 127.1 149.131 127.1 151.081C127.1 152.976 127.1 154.844 127.1 156.686C127.1 158.473 127.1 160.179 127.1 161.803C127.1 164.565 127.1 167.11 127.1 169.439C127.1 171.713 127.1 173.826 127.1 175.775C127.1 177.67 127.1 179.458 127.1 181.136C127.1 182.761 127.1 184.331 127.1 185.848C127.1 187.31 127.127 188.772 127.181 190.234L125.881 187.716C126.64 187.716 127.425 187.716 128.237 187.716C129.104 187.716 129.997 187.716 130.918 187.716C131.893 187.716 132.84 187.716 133.761 187.716C134.736 187.716 135.71 187.716 136.685 187.716C137.714 187.662 138.716 187.635 139.691 187.635C139.691 187.96 139.691 188.393 139.691 188.935C139.691 189.422 139.691 189.909 139.691 190.397C139.691 190.776 139.691 191.236 139.691 191.778C139.691 192.265 139.691 192.698 139.691 193.077Z" fill="#FFF9EE"/>
<path d="M116.666 193.077L98.0814 193.077C98.0814 192.373 98.0814 191.02 98.0814 189.016C98.0814 187.012 98.0814 184.575 98.0814 181.705C98.1355 178.835 98.1626 175.748 98.1626 172.445C98.1626 169.141 98.1626 165.865 98.1626 162.616C98.1626 157.633 98.1626 153.22 98.1626 149.375C98.1626 145.476 98.1626 142.091 98.1626 139.221C98.1626 136.351 98.1085 133.995 98.0002 132.154L104.093 132.154C104.038 133.237 103.984 134.51 103.93 135.972C103.93 137.434 103.903 139.058 103.849 140.846C103.849 142.633 103.849 144.636 103.849 146.857C103.849 149.023 103.849 151.406 103.849 154.005C103.849 156.55 103.849 159.366 103.849 162.453C103.849 164.89 103.849 167.462 103.849 170.17C103.849 172.878 103.849 175.531 103.849 178.131C103.903 180.676 103.93 182.951 103.93 184.954C103.93 186.958 103.93 188.474 103.93 189.503L102.549 187.797C103.253 187.797 104.038 187.797 104.905 187.797C105.771 187.797 106.665 187.797 107.585 187.797C108.506 187.743 109.427 187.716 110.347 187.716C111.322 187.662 115.745 187.608 116.666 187.554C116.666 187.933 116.666 188.366 116.666 188.853C116.666 189.287 116.666 189.747 116.666 190.234C116.666 190.722 116.666 191.209 116.666 191.696C116.666 192.184 116.666 192.644 116.666 193.077Z" fill="#FFF9EE"/>
<path d="M86.4938 157.498C86.5479 156.524 86.575 155.549 86.575 154.574C86.575 153.599 86.575 152.706 86.575 151.893C86.6292 151.027 86.6562 150.296 86.6562 149.7C86.6562 146.126 86.4667 143.418 86.0876 141.577C85.7085 139.736 85.1399 138.49 84.3818 137.84C83.6236 137.191 82.703 136.866 81.6199 136.866C80.9159 136.866 80.2389 137.028 79.5891 137.353C78.9934 137.678 78.4518 138.328 77.9645 139.303C77.5312 140.223 77.1521 141.631 76.8272 143.527C76.5023 145.368 76.2586 147.805 76.0961 150.837C75.9337 153.87 75.8524 157.661 75.8524 162.21C75.8524 166.813 75.9337 170.685 76.0961 173.826C76.2586 176.913 76.5023 179.431 76.8272 181.38C77.1521 183.276 77.5312 184.738 77.9645 185.767C78.4518 186.796 78.9934 187.5 79.5891 187.879C80.2389 188.204 80.9429 188.366 81.7011 188.366C82.9466 188.366 83.9485 187.933 84.7067 187.067C85.4648 186.146 86.0064 184.657 86.3313 182.599C86.6562 180.487 86.8187 177.725 86.8187 174.313C86.8187 173.176 86.8187 172.12 86.8187 171.145C86.8187 170.171 86.7916 169.115 86.7375 167.977C87.0624 167.977 87.3602 167.977 87.631 167.977C87.9559 167.977 88.2538 167.977 88.5245 167.977C88.8495 167.977 89.2015 167.977 89.5806 167.977C90.0138 167.977 90.447 167.977 90.8803 167.977C91.3676 167.977 91.855 167.977 92.3424 167.977C92.3966 168.573 92.4237 169.169 92.4237 169.764C92.4237 170.306 92.4237 170.875 92.4237 171.47C92.4237 172.012 92.4237 172.635 92.4237 173.339C92.4237 176.046 92.2883 178.483 92.0175 180.649C91.8009 182.816 91.4218 184.711 90.8803 186.336C90.3387 187.96 89.6347 189.341 88.7682 190.478C87.9559 191.561 86.9541 192.374 85.7627 192.915C84.6254 193.457 83.2716 193.728 81.7011 193.728C80.0765 193.728 78.6414 193.457 77.3958 192.915C76.1503 192.374 75.0401 191.426 74.0653 190.072C73.1447 188.664 72.3866 186.769 71.7909 184.386C71.1952 182.003 70.7349 178.998 70.4099 175.369C70.1392 171.741 70.0038 167.382 70.0038 162.291C70.0038 157.255 70.1392 152.977 70.4099 149.457C70.7349 145.882 71.1952 142.931 71.7909 140.602C72.3866 138.274 73.1447 136.46 74.0654 135.16C75.0401 133.806 76.1503 132.858 77.3958 132.317C78.6955 131.775 80.1577 131.504 81.7823 131.504C83.3528 131.504 84.7067 131.721 85.8439 132.154C87.0353 132.587 88.0101 133.291 88.7683 134.266C89.5806 135.187 90.2304 136.378 90.7178 137.84C91.2593 139.303 91.6384 141.036 91.855 143.039C92.1258 144.989 92.2612 147.236 92.2612 149.781C92.2612 150.648 92.2341 151.514 92.18 152.381C92.18 153.193 92.18 154.033 92.18 154.899C92.18 155.711 92.1529 156.578 92.0987 157.498C91.6655 157.444 91.2052 157.417 90.7178 157.417C90.2304 157.417 89.743 157.417 89.2556 157.417C88.9307 157.417 88.6058 157.417 88.2809 157.417C88.0101 157.417 87.7122 157.417 87.3873 157.417C87.1165 157.417 86.8187 157.444 86.4938 157.498Z" fill="#FFF9EE"/>
<path d="M43.3581 132.154L54.0806 132.154C55.8136 132.154 57.3299 132.425 58.6296 132.966C59.9835 133.508 61.0936 134.455 61.9601 135.809C62.8807 137.109 63.5576 138.95 63.9909 141.333C64.4783 143.662 64.722 146.586 64.722 150.106C64.722 153.247 64.5324 155.928 64.1533 158.148C63.8284 160.368 63.2598 162.182 62.4475 163.59C61.6893 164.998 60.6604 166.054 59.3607 166.758C58.061 167.462 56.4634 167.814 54.568 167.814L57.5736 166.271L57.5736 168.708L54.568 167.327C56.1927 167.435 57.5465 167.652 58.6296 167.977C59.7127 168.302 60.6062 168.87 61.3102 169.683C62.0142 170.441 62.6099 171.632 63.0973 173.257C63.5847 174.827 64.0179 176.966 64.397 179.674C64.722 181.407 64.9927 183.113 65.2093 184.792C65.4801 186.471 65.7238 188.041 65.9404 189.503C66.2112 190.911 66.4549 192.103 66.6715 193.077L61.229 193.077C60.9041 193.077 60.6604 192.996 60.4979 192.834C60.3355 192.671 60.2001 192.4 60.0918 192.021C59.9835 191.642 59.8481 191.155 59.6856 190.559C59.2524 186.768 58.8733 183.627 58.5484 181.136C58.2234 178.591 57.8985 176.56 57.5736 175.044C57.2487 173.474 56.8967 172.282 56.5176 171.47C56.1385 170.658 55.6782 170.143 55.1366 169.926C54.6493 169.656 54.0536 169.52 53.3496 169.52C52.9705 169.52 52.6455 169.52 52.3748 169.52C52.104 169.52 51.8062 169.547 51.4812 169.601C51.2105 169.601 50.9397 169.601 50.6689 169.601C50.3981 169.601 50.1003 169.629 49.7754 169.683C49.5046 169.683 49.1526 169.683 48.7194 169.683L48.5569 164.484C48.7194 164.484 48.936 164.484 49.2067 164.484C49.5317 164.484 49.9107 164.511 50.344 164.565C50.7772 164.565 51.2646 164.565 51.8062 164.565C52.3477 164.565 52.9434 164.565 53.5932 164.565C54.8388 164.565 55.8677 164.078 56.68 163.103C57.4924 162.074 58.0881 160.585 58.4671 158.635C58.9004 156.632 59.117 154.14 59.117 151.162C59.117 148.129 58.9816 145.692 58.7108 143.851C58.4942 142.01 58.1151 140.629 57.5736 139.708C57.0862 138.734 56.4634 138.084 55.7053 137.759C54.9471 137.434 54.0536 137.271 53.0246 137.271C52.8622 137.271 52.6185 137.271 52.2935 137.271C52.0228 137.271 51.6978 137.271 51.3188 137.271C50.9938 137.271 50.6418 137.298 50.2628 137.353C49.8837 137.353 49.5046 137.353 49.1255 137.353C48.7464 137.353 48.3944 137.38 48.0695 137.434C47.7987 137.434 47.5821 137.434 47.4197 137.434L49.0443 134.591C49.0443 140.385 49.0443 146.153 49.0443 151.893C49.0443 157.633 49.0443 163.103 49.0443 168.302C49.0984 173.501 49.1526 178.239 49.2067 182.517C49.2609 186.741 49.3421 190.261 49.4504 193.077L43.3581 193.077C43.3581 190.153 43.3581 187.175 43.3581 184.142C43.4122 181.109 43.4393 177.86 43.4393 174.394C43.4935 170.874 43.5205 166.948 43.5205 162.616C43.5205 156.171 43.4935 150.593 43.4393 145.882C43.3852 141.116 43.3581 136.54 43.3581 132.154Z" fill="#FFF9EE"/>
<path d="M35.6591 193.077L29.5668 193.077C29.6209 191.29 29.648 189.314 29.648 187.147C29.7021 184.981 29.7292 182.626 29.7292 180.08C29.7292 177.535 29.7292 174.8 29.7292 171.876C29.7292 168.952 29.7292 165.865 29.7292 162.616C29.7292 159.366 29.7292 156.28 29.7292 153.355C29.7292 150.431 29.7292 147.696 29.7292 145.151C29.7292 142.551 29.7022 140.169 29.648 138.002C29.648 135.836 29.6209 133.887 29.5668 132.154L35.6591 132.154C35.605 133.887 35.5508 135.836 35.4967 138.002C35.4967 140.169 35.4967 142.524 35.4967 145.07C35.4967 147.615 35.4967 150.377 35.4967 153.355C35.4967 156.28 35.4967 159.366 35.4967 162.616C35.4967 165.865 35.4967 168.952 35.4967 171.876C35.4967 174.746 35.4967 177.454 35.4967 179.999C35.4967 182.544 35.4967 184.927 35.4967 187.147C35.5508 189.314 35.605 191.29 35.6591 193.077Z" fill="#FFF9EE"/>
<path d="M17.0942 157.498C17.1484 156.524 17.1755 155.549 17.1755 154.574C17.1755 153.599 17.1755 152.706 17.1755 151.893C17.2296 151.027 17.2567 150.296 17.2567 149.7C17.2567 146.126 17.0671 143.418 16.6881 141.577C16.309 139.736 15.7404 138.49 14.9822 137.84C14.224 137.191 13.3034 136.866 12.2203 136.866C11.5163 136.866 10.8394 137.028 10.1896 137.353C9.59385 137.678 9.05231 138.328 8.56492 139.303C8.13169 140.223 7.75261 141.631 7.42768 143.527C7.10276 145.368 6.85906 147.805 6.6966 150.837C6.53413 153.87 6.4529 157.661 6.4529 162.21C6.4529 166.813 6.53413 170.685 6.69659 173.826C6.85905 176.913 7.10275 179.431 7.42767 181.38C7.7526 183.276 8.13168 184.738 8.56491 185.767C9.0523 186.796 9.59385 187.5 10.1895 187.879C10.8394 188.204 11.5434 188.366 12.3016 188.366C13.5471 188.366 14.549 187.933 15.3071 187.067C16.0653 186.146 16.6068 184.657 16.9318 182.599C17.2567 180.487 17.4191 177.725 17.4191 174.313C17.4191 173.176 17.4191 172.12 17.4191 171.145C17.4191 170.171 17.3921 169.115 17.3379 167.977C17.6628 167.977 17.9607 167.977 18.2315 167.977C18.5564 167.977 18.8542 167.977 19.125 167.977C19.4499 167.977 19.8019 167.977 20.181 167.977C20.6143 167.977 21.0475 167.977 21.4807 167.977C21.9681 167.977 22.4555 167.977 22.9429 167.977C22.997 168.573 23.0241 169.169 23.0241 169.764C23.0241 170.306 23.0241 170.875 23.0241 171.47C23.0241 172.012 23.0241 172.635 23.0241 173.339C23.0241 176.046 22.8887 178.483 22.618 180.649C22.4013 182.816 22.0223 184.711 21.4807 186.336C20.9392 187.96 20.2352 189.341 19.3687 190.478C18.5564 191.561 17.5545 192.374 16.3631 192.915C15.2259 193.457 13.872 193.728 12.3016 193.728C10.6769 193.728 9.24184 193.457 7.99629 192.915C6.75074 192.374 5.64058 191.426 4.6658 190.072C3.74518 188.664 2.98702 186.769 2.39132 184.386C1.79563 182.003 1.33532 178.998 1.01039 175.369C0.739619 171.741 0.604234 167.382 0.604235 162.291C0.604236 157.255 0.739622 152.977 1.01039 149.457C1.33532 145.882 1.79563 142.931 2.39133 140.602C2.98703 138.274 3.74519 136.46 4.66581 135.16C5.64059 133.806 6.75075 132.858 7.9963 132.317C9.29601 131.775 10.7582 131.504 12.3828 131.504C13.9533 131.504 15.3071 131.721 16.4444 132.154C17.6358 132.587 18.6105 133.291 19.3687 134.266C20.181 135.187 20.8309 136.378 21.3183 137.84C21.8598 139.303 22.2389 141.036 22.4555 143.039C22.7263 144.989 22.8617 147.236 22.8617 149.781C22.8617 150.648 22.8346 151.514 22.7804 152.381C22.7804 153.193 22.7804 154.033 22.7804 154.899C22.7804 155.711 22.7533 156.578 22.6992 157.498C22.266 157.444 21.8056 157.417 21.3183 157.417C20.8309 157.417 20.3435 157.417 19.8561 157.417C19.5312 157.417 19.2062 157.417 18.8813 157.417C18.6105 157.417 18.3127 157.417 17.9878 157.417C17.717 157.417 17.4191 157.444 17.0942 157.498Z" fill="#FFF9EE"/>
<path d="M121.089 66.1194L131.811 66.1194C133.544 66.1194 135.061 66.3902 136.36 66.9317C137.714 67.4732 138.824 68.4209 139.691 69.7748C140.611 71.0745 141.288 72.9158 141.722 75.2985C142.209 77.6272 142.453 80.5515 142.453 84.0715C142.453 87.2125 142.263 89.8931 141.884 92.1134C141.559 94.3338 140.99 96.1479 140.178 97.5559C139.42 98.964 138.391 100.02 137.091 100.724C135.792 101.428 134.194 101.78 132.299 101.78L135.304 100.237L135.304 102.674L132.299 101.293C133.923 101.401 135.277 101.618 136.36 101.942C137.443 102.267 138.337 102.836 139.041 103.648C139.745 104.406 140.341 105.598 140.828 107.222C141.315 108.793 141.749 110.932 142.128 113.64C142.453 115.373 142.723 117.079 142.94 118.757C143.211 120.436 143.454 122.007 143.671 123.469C143.942 124.877 144.186 126.068 144.402 127.043L138.96 127.043C138.635 127.043 138.391 126.962 138.229 126.799C138.066 126.637 137.931 126.366 137.822 125.987C137.714 125.608 137.579 125.12 137.416 124.525C136.983 120.734 136.604 117.593 136.279 115.102C135.954 112.557 135.629 110.526 135.304 109.01C134.979 107.439 134.627 106.248 134.248 105.435C133.869 104.623 133.409 104.109 132.867 103.892C132.38 103.621 131.784 103.486 131.08 103.486C130.701 103.486 130.376 103.486 130.105 103.486C129.835 103.486 129.537 103.513 129.212 103.567C128.941 103.567 128.67 103.567 128.4 103.567C128.129 103.567 127.831 103.594 127.506 103.648C127.235 103.648 126.883 103.648 126.45 103.648L126.288 98.4495C126.45 98.4495 126.667 98.4495 126.937 98.4495C127.262 98.4495 127.641 98.4766 128.075 98.5307C128.508 98.5307 128.995 98.5307 129.537 98.5307C130.078 98.5307 130.674 98.5307 131.324 98.5307C132.569 98.5307 133.598 98.0433 134.411 97.0686C135.223 96.0396 135.819 94.5504 136.198 92.6008C136.631 90.5971 136.848 88.106 136.848 85.1275C136.848 82.0949 136.712 79.658 136.441 77.8167C136.225 75.9755 135.846 74.5945 135.304 73.6739C134.817 72.6991 134.194 72.0493 133.436 71.7244C132.678 71.3994 131.784 71.237 130.755 71.237C130.593 71.237 130.349 71.237 130.024 71.237C129.753 71.237 129.429 71.237 129.049 71.237C128.725 71.237 128.373 71.264 127.993 71.3182C127.614 71.3182 127.235 71.3182 126.856 71.3182C126.477 71.3182 126.125 71.3453 125.8 71.3994C125.529 71.3994 125.313 71.3994 125.15 71.3994L126.775 68.5563C126.775 74.3508 126.775 80.1183 126.775 85.8586C126.775 91.599 126.775 97.0685 126.775 102.267C126.829 107.466 126.883 112.205 126.937 116.483C126.992 120.707 127.073 124.227 127.181 127.043L121.089 127.043C121.089 124.119 121.089 121.14 121.089 118.107C121.143 115.075 121.17 111.826 121.17 108.36C121.224 104.84 121.251 100.914 121.251 96.5812C121.251 90.1368 121.224 84.5589 121.17 79.8475C121.116 75.0819 121.089 70.5059 121.089 66.1194Z" fill="#FFF9EE"/>
<path d="M103.019 98.6932L103.019 93.5756C103.994 93.5756 104.941 93.5756 105.862 93.5756C106.837 93.5756 107.757 93.5756 108.624 93.5756C109.544 93.5756 110.411 93.5756 111.223 93.5756C112.09 93.5756 112.956 93.5756 113.823 93.5756C114.689 93.5214 115.528 93.4944 116.341 93.4944C116.341 93.9276 116.314 94.4691 116.26 95.119C116.26 95.7689 116.26 96.4187 116.26 97.0686C116.26 97.7184 116.26 98.287 116.26 98.7744C115.501 98.7744 114.689 98.7744 113.823 98.7744C112.956 98.7203 112.09 98.6932 111.223 98.6932C110.411 98.6932 109.544 98.6932 108.624 98.6932C107.703 98.6932 106.783 98.6932 105.862 98.6932C104.941 98.6932 103.994 98.6932 103.019 98.6932ZM116.666 127.043L98.0637 127.043C98.172 124.66 98.2261 121.925 98.2261 118.839C98.2261 115.752 98.2261 112.367 98.2261 108.685C98.2261 104.948 98.2261 100.914 98.2261 96.5812C98.2261 93.3319 98.2261 90.218 98.2261 87.2395C98.2261 84.2069 98.2261 81.3909 98.2261 78.7915C98.2803 76.1379 98.2803 73.7281 98.2261 71.5619C98.2261 69.3957 98.199 67.5816 98.1449 66.1194L116.666 66.1194C116.666 66.4443 116.666 66.8505 116.666 67.3379C116.666 67.7711 116.666 68.2043 116.666 68.6376C116.666 69.1249 116.666 69.6394 116.666 70.181C116.666 70.7225 116.666 71.1828 116.666 71.5619C115.637 71.5077 114.635 71.4807 113.66 71.4807C112.685 71.4265 111.711 71.3994 110.736 71.3994C109.761 71.3994 108.813 71.3994 107.893 71.3994C106.972 71.3994 106.078 71.3994 105.212 71.3994C104.4 71.3994 103.614 71.3994 102.856 71.3994L104.156 68.2314C104.156 69.9643 104.156 71.7514 104.156 73.5927C104.156 75.4339 104.129 77.3293 104.075 79.2789C104.075 81.1743 104.075 83.0967 104.075 85.0463C104.075 86.9417 104.075 88.81 104.075 90.6513C104.075 92.4384 104.075 94.1442 104.075 95.7688C104.075 98.5307 104.075 101.076 104.075 103.405C104.075 105.679 104.075 107.791 104.075 109.741C104.075 111.636 104.075 113.423 104.075 115.102C104.075 116.727 104.075 118.297 104.075 119.813C104.075 121.276 104.102 122.738 104.156 124.2L102.856 121.682C103.614 121.682 104.4 121.682 105.212 121.682C106.078 121.682 106.972 121.682 107.893 121.682C108.867 121.682 109.815 121.682 110.736 121.682C111.711 121.682 112.685 121.682 113.66 121.682C114.689 121.628 115.691 121.6 116.666 121.6C116.666 121.925 116.666 122.359 116.666 122.9C116.666 123.388 116.666 123.875 116.666 124.362C116.666 124.741 116.666 125.202 116.666 125.743C116.666 126.231 116.666 126.664 116.666 127.043Z" fill="#FFF9EE"/>
<path d="M85.8854 95.6878C86.427 95.6878 87.0227 95.6878 87.6725 95.6878C88.3765 95.6878 89.0805 95.6878 89.7845 95.6878C90.5427 95.6337 91.2738 95.6066 91.9778 95.6066L88.7285 100.399C88.4036 100.399 88.0245 100.399 87.5913 100.399C87.2122 100.399 86.779 100.399 86.2916 100.399C85.8583 100.399 85.371 100.399 84.8294 100.399C84.342 100.399 83.8546 100.399 83.3673 100.399C82.8799 100.399 82.3925 100.426 81.9051 100.48C81.4177 100.48 80.9574 100.48 80.5241 100.48C80.5241 100.318 80.5241 100.101 80.5241 99.8306C80.5241 99.5057 80.5241 99.2078 80.5241 98.9371C80.5241 98.6663 80.5241 98.4226 80.5241 98.206C80.5241 97.7186 80.5241 97.2583 80.5241 96.8251C80.5241 96.3377 80.5241 95.9315 80.5241 95.6066C81.5531 95.6066 82.5279 95.6337 83.4485 95.6878C84.3691 95.6878 85.1814 95.6878 85.8854 95.6878ZM86.454 88.7019C86.5082 87.9979 86.5353 87.2939 86.5353 86.5899C86.5353 85.8317 86.5353 85.1277 86.5353 84.4779C86.5894 83.7739 86.6165 83.2053 86.6165 82.772C86.6165 79.5769 86.427 77.1129 86.0479 75.38C85.723 73.647 85.1814 72.4556 84.4233 71.8058C83.7193 71.1018 82.7986 70.7498 81.6614 70.7498C80.6866 70.7498 79.7931 71.0747 78.9808 71.7245C78.2226 72.3202 77.5457 73.4846 76.95 75.2175C76.4084 76.9504 76.0023 79.4957 75.7315 82.8532C75.4607 86.1567 75.3253 90.5161 75.3253 95.9315C75.3253 101.401 75.4336 105.896 75.6503 109.416C75.921 112.882 76.3001 115.562 76.7875 117.458C77.329 119.353 78.006 120.68 78.8183 121.438C79.6306 122.142 80.5783 122.494 81.6614 122.494C82.7986 122.494 83.7192 122.142 84.4233 121.438C85.1273 120.734 85.6417 119.462 85.9667 117.62C86.3457 115.779 86.5624 113.207 86.6165 109.903C86.7248 106.546 86.6977 102.295 86.5353 97.15C86.6436 97.15 86.779 97.0958 86.9414 96.9875C87.1581 96.8251 87.3747 96.6626 87.5913 96.5001C87.8079 96.3377 87.9974 96.2023 88.1599 96.094C88.3765 95.9315 88.539 95.8503 88.6473 95.8503C89.0805 95.8503 89.4867 95.8503 89.8658 95.8503C90.2449 95.7961 90.6239 95.742 91.003 95.6878C91.3821 95.6337 91.707 95.6066 91.9778 95.6066C92.1402 99.6682 92.1944 103.296 92.1402 106.492C92.0861 109.687 91.9236 112.476 91.6529 114.858C91.4362 117.187 91.0572 119.191 90.5156 120.87C90.0282 122.494 89.3784 123.821 88.5661 124.85C87.7537 125.825 86.779 126.556 85.6417 127.043C84.5045 127.476 83.1235 127.693 81.4989 127.693C79.4411 127.693 77.654 127.206 76.1376 126.231C74.6213 125.202 73.3758 123.496 72.401 121.113C71.4262 118.73 70.6951 115.481 70.2077 111.365C69.7745 107.25 69.5579 102.105 69.5579 95.9315C69.5579 91.0035 69.6933 86.7794 69.9641 83.2594C70.289 79.7394 70.7764 76.8421 71.4262 74.5676C72.0761 72.239 72.8884 70.4248 73.8632 69.1251C74.838 67.7713 75.9752 66.8236 77.2749 66.282C78.6288 65.7405 80.1451 65.4697 81.8239 65.4697C83.3402 65.4697 84.667 65.7134 85.8042 66.2008C86.9414 66.634 87.9162 67.311 88.7285 68.2316C89.595 69.0981 90.2719 70.2082 90.7593 71.5621C91.3009 72.9159 91.6799 74.5135 91.8966 76.3547C92.1673 78.1418 92.3027 80.1997 92.3027 82.5283C92.3027 83.6114 92.2756 84.6674 92.2215 85.6964C92.2215 86.6711 92.1944 87.673 92.1402 88.7019C91.7612 88.7019 91.3279 88.7019 90.8405 88.7019C90.4073 88.6478 89.9199 88.6207 89.3784 88.6207C88.891 88.6207 88.3765 88.6207 87.835 88.6207C87.3476 88.6207 86.8873 88.6478 86.454 88.7019Z" fill="#FFF9EE"/>
<path d="M57.3595 95.6878C57.9011 95.6878 58.4968 95.6878 59.1466 95.6878C59.8506 95.6878 60.5546 95.6878 61.2586 95.6878C62.0168 95.6337 62.7479 95.6066 63.4519 95.6066L60.2026 100.399C59.8777 100.399 59.4986 100.399 59.0654 100.399C58.6863 100.399 58.2531 100.399 57.7657 100.399C57.3325 100.399 56.8451 100.399 56.3035 100.399C55.8161 100.399 55.3287 100.399 54.8414 100.399C54.354 100.399 53.8666 100.426 53.3792 100.48C52.8918 100.48 52.4315 100.48 51.9982 100.48C51.9982 100.318 51.9982 100.101 51.9982 99.8306C51.9982 99.5057 51.9982 99.2078 51.9982 98.9371C51.9982 98.6663 51.9982 98.4226 51.9983 98.206C51.9983 97.7186 51.9983 97.2583 51.9983 96.8251C51.9983 96.3377 51.9983 95.9315 51.9983 95.6066C53.0272 95.6066 54.002 95.6337 54.9226 95.6878C55.8432 95.6878 56.6555 95.6878 57.3595 95.6878ZM57.9281 88.7019C57.9823 87.9979 58.0094 87.2939 58.0094 86.5899C58.0094 85.8317 58.0094 85.1277 58.0094 84.4779C58.0635 83.7739 58.0906 83.2053 58.0906 82.772C58.0906 79.5769 57.9011 77.1129 57.522 75.38C57.1971 73.647 56.6555 72.4556 55.8974 71.8058C55.1934 71.1018 54.2727 70.7498 53.1355 70.7498C52.1607 70.7498 51.2672 71.0747 50.4549 71.7245C49.6967 72.3202 49.0198 73.4846 48.4241 75.2175C47.8825 76.9504 47.4764 79.4957 47.2056 82.8532C46.9348 86.1567 46.7994 90.5161 46.7994 95.9315C46.7994 101.401 46.9077 105.896 47.1244 109.416C47.3951 112.882 47.7742 115.562 48.2616 117.458C48.8031 119.353 49.4801 120.68 50.2924 121.438C51.1047 122.142 52.0524 122.494 53.1355 122.494C54.2727 122.494 55.1934 122.142 55.8974 121.438C56.6014 120.734 57.1158 119.462 57.4408 117.62C57.8198 115.779 58.0365 113.207 58.0906 109.903C58.1989 106.546 58.1718 102.295 58.0094 97.15C58.1177 97.15 58.2531 97.0958 58.4155 96.9875C58.6322 96.8251 58.8488 96.6626 59.0654 96.5001C59.282 96.3377 59.4715 96.2023 59.634 96.094C59.8506 95.9315 60.0131 95.8503 60.1214 95.8503C60.5546 95.8503 60.9608 95.8503 61.3399 95.8503C61.7189 95.7961 62.098 95.742 62.4771 95.6878C62.8562 95.6337 63.1811 95.6066 63.4519 95.6066C63.6144 99.6682 63.6685 103.296 63.6143 106.492C63.5602 109.687 63.3977 112.476 63.127 114.858C62.9103 117.187 62.5313 119.191 61.9897 120.87C61.5023 122.494 60.8525 123.821 60.0402 124.85C59.2278 125.825 58.2531 126.556 57.1158 127.043C55.9786 127.476 54.5977 127.693 52.973 127.693C50.9152 127.693 49.1281 127.206 47.6117 126.231C46.0954 125.202 44.8499 123.496 43.8751 121.113C42.9003 118.73 42.1692 115.481 41.6819 111.365C41.2486 107.25 41.032 102.105 41.032 95.9315C41.032 91.0035 41.1674 86.7794 41.4382 83.2594C41.7631 79.7394 42.2505 76.8421 42.9003 74.5676C43.5502 72.239 44.3625 70.4248 45.3373 69.1251C46.3121 67.7713 47.4493 66.8236 48.749 66.282C50.1029 65.7405 51.6192 65.4697 53.298 65.4697C54.8143 65.4697 56.1411 65.7134 57.2783 66.2008C58.4155 66.634 59.3903 67.311 60.2026 68.2316C61.0691 69.0981 61.746 70.2082 62.2334 71.5621C62.775 72.9159 63.154 74.5135 63.3707 76.3547C63.6414 78.1418 63.7768 80.1997 63.7768 82.5283C63.7768 83.6114 63.7497 84.6674 63.6956 85.6964C63.6956 86.6711 63.6685 87.673 63.6144 88.7019C63.2353 88.7019 62.802 88.7019 62.3147 88.7019C61.8814 88.6478 61.394 88.6207 60.8525 88.6207C60.3651 88.6207 59.8506 88.6207 59.3091 88.6207C58.8217 88.6207 58.3614 88.6478 57.9281 88.7019Z" fill="#FFF9EE"/>
<path d="M35.6591 127.043L29.5668 127.043C29.6209 125.256 29.648 123.279 29.648 121.113C29.7021 118.947 29.7292 116.591 29.7292 114.046C29.7292 111.501 29.7292 108.766 29.7292 105.842C29.7292 102.917 29.7292 99.8304 29.7292 96.5812C29.7292 93.3319 29.7292 90.2451 29.7292 87.3208C29.7292 84.3965 29.7292 81.6617 29.7292 79.1164C29.7292 76.517 29.7022 74.1342 29.648 71.968C29.648 69.8019 29.6209 67.8523 29.5668 66.1194L35.6591 66.1194C35.605 67.8523 35.5508 69.8019 35.4967 71.9681C35.4967 74.1342 35.4967 76.4899 35.4967 79.0352C35.4967 81.5804 35.4967 84.3423 35.4967 87.3208C35.4967 90.2451 35.4967 93.3319 35.4967 96.5812C35.4967 99.8304 35.4967 102.917 35.4967 105.842C35.4967 108.712 35.4967 111.419 35.4967 113.965C35.4967 116.51 35.4967 118.893 35.4967 121.113C35.5508 123.279 35.605 125.256 35.6591 127.043Z" fill="#FFF9EE"/>
<path d="M6.31174 98.6119L6.39297 93.7381C7.31359 93.7922 8.23421 93.8464 9.15484 93.9005C10.1296 93.9005 10.969 93.9005 11.673 93.9005C13.1893 93.8464 14.3807 93.4402 15.2472 92.6821C16.1137 91.9239 16.7094 90.7054 17.0343 89.0266C17.4134 87.3479 17.6029 85.1546 17.6029 82.4469C17.6029 79.1435 17.4405 76.6795 17.1155 75.0548C16.7906 73.4302 16.1949 72.3742 15.3284 71.8868C14.5161 71.3453 13.3518 71.0745 11.8355 71.0745C11.0232 71.0745 10.1567 71.1016 9.23607 71.1557C8.31545 71.1557 7.3136 71.2099 6.23051 71.3182L7.77391 68.6376C7.77391 69.9373 7.74683 71.6973 7.69268 73.9176C7.69268 76.0838 7.69267 78.4666 7.69267 81.066C7.69267 83.6112 7.69267 86.1835 7.69267 88.783C7.69267 91.3282 7.69267 93.711 7.69267 95.9313C7.69267 97.935 7.69267 100.264 7.69267 102.917C7.69267 105.571 7.69267 108.278 7.69267 111.04C7.69267 113.802 7.69267 116.429 7.69267 118.92C7.74682 121.357 7.80098 123.388 7.85513 125.012L6.39296 121.682C7.47605 121.79 8.45083 121.871 9.3173 121.925C10.2379 121.925 11.0773 121.925 11.8355 121.925C13.0269 121.925 14.0287 121.79 14.841 121.519C15.6534 121.194 16.2761 120.653 16.7094 119.895C17.1967 119.082 17.5488 117.918 17.7654 116.402C17.982 114.831 18.0903 112.827 18.0903 110.391C18.0903 107.466 17.9008 105.138 17.5217 103.405C17.1426 101.672 16.4927 100.426 15.5721 99.668C14.6515 98.8556 13.406 98.4495 11.8355 98.4495C11.2939 98.4495 10.7253 98.4766 10.1296 98.5307C9.53392 98.5307 8.91114 98.5307 8.26129 98.5307C7.61144 98.5307 6.96159 98.5578 6.31174 98.6119ZM12.729 127.043L1.76277 127.043C1.92523 123.144 2.00646 118.73 2.00647 113.802C2.00647 108.82 2.00647 103.08 2.00647 96.5812C2.00647 92.2488 2.00647 88.2414 2.00647 84.5589C2.00647 80.8764 1.97939 77.4918 1.92524 74.405C1.92524 71.3182 1.87109 68.5563 1.76278 66.1194L12.8915 66.1194C14.7869 66.1194 16.3844 66.3631 17.6841 66.8505C19.038 67.2837 20.1211 68.0689 20.9334 69.2062C21.7457 70.3434 22.3414 71.968 22.7205 74.0801C23.0996 76.1921 23.2891 78.8998 23.2891 82.2032C23.2891 84.586 23.1537 86.6168 22.883 88.2956C22.6663 89.9202 22.2873 91.274 21.7457 92.3571C21.2583 93.3861 20.5814 94.2255 19.7149 94.8753C19.0651 95.4168 18.1986 95.7959 17.1155 96.0125C16.0866 96.175 14.8952 96.3104 13.5413 96.4187L16.3032 95.2002L16.3032 97.3935L13.5413 96.2562C14.8952 96.3645 16.0595 96.4729 17.0343 96.5812C18.0632 96.6353 18.9297 96.9061 19.6337 97.3935C20.6085 97.935 21.3937 98.7744 21.9894 99.9117C22.5851 101.049 23.0183 102.538 23.2891 104.379C23.5599 106.166 23.6953 108.387 23.6953 111.04C23.6953 114.235 23.5057 116.889 23.1266 119.001C22.7476 121.059 22.1248 122.684 21.2583 123.875C20.3919 125.012 19.2546 125.824 17.8466 126.312C16.4927 126.799 14.7869 127.043 12.729 127.043Z" fill="#FFF9EE"/>
<path d="M64.5563 39.4005C65.0437 39.4005 65.6123 39.4276 66.2622 39.4817C66.912 39.4817 67.5889 39.4817 68.2929 39.4817C69.0511 39.4817 69.7551 39.4817 70.405 39.4817C71.109 39.4817 71.7047 39.4817 72.192 39.4817C72.7336 39.4817 73.3293 39.4817 73.9791 39.4817C74.629 39.4817 75.3059 39.4817 76.0099 39.4817C76.7139 39.4817 77.3909 39.4817 78.0407 39.4817C78.6906 39.4276 79.2863 39.4005 79.8278 39.4005L79.909 44.3556C79.3133 44.3556 78.6635 44.3556 77.9595 44.3556C77.3096 44.3014 76.6327 44.2744 75.9287 44.2744C75.2247 44.2744 74.5478 44.2744 73.8979 44.2744C73.3022 44.2744 72.7336 44.2744 72.192 44.2744C71.7047 44.2744 71.136 44.2744 70.4862 44.2744C69.8363 44.2744 69.1323 44.2744 68.3742 44.2744C67.6702 44.2744 66.9662 44.3014 66.2622 44.3556C65.6123 44.3556 64.9895 44.3556 64.3938 44.3556L64.5563 39.4005ZM85.2703 61.008L78.7718 61.008C78.7176 60.0333 78.5823 58.6252 78.3656 56.784C78.2032 54.8886 77.9866 52.7224 77.7158 50.2855C77.445 47.7944 77.1472 45.1138 76.8222 42.2436C76.4973 39.3734 76.1453 36.4491 75.7662 33.4706C75.4413 30.4379 75.0893 27.4865 74.7102 24.6164C74.3853 21.692 74.0874 18.9843 73.8167 16.4932C73.5459 14.1646 73.2751 12.1067 73.0044 10.3196C72.7878 8.53255 72.5982 6.96207 72.4358 5.60821C72.3274 4.2002 72.2191 3.03589 72.1108 2.11526L73.1668 4.06482L71.136 4.06482L72.1921 2.11526C72.1379 3.03589 72.0296 4.17313 71.8671 5.52698C71.7047 6.88084 71.488 8.47839 71.2173 10.3196C71.0007 12.1609 70.7299 14.2458 70.405 16.5744C70.08 19.6071 69.701 22.8834 69.2677 26.4035C68.8886 29.8693 68.4825 33.3623 68.0492 36.8823C67.6702 40.4023 67.2911 43.7599 66.912 46.955C66.5871 50.0959 66.2892 52.8849 66.0185 55.3218C65.7477 57.7588 65.5581 59.6542 65.4498 61.008L59.3575 61.008C59.6824 58.9502 60.0615 56.432 60.4947 53.4535C60.928 50.475 61.3883 47.2258 61.8757 43.7057C62.363 40.1857 62.8504 36.5845 63.3378 32.902C63.8252 29.1653 64.3126 25.537 64.8 22.017C65.2874 18.4428 65.7206 15.1664 66.0997 12.188C66.5329 9.15532 66.8849 6.58299 67.1557 4.47097C67.4265 2.35896 67.616 0.896791 67.7243 0.0844741L76.741 0.0844757C76.8493 0.950946 77.0389 2.44019 77.3096 4.5522C77.6346 6.61007 77.9866 9.15532 78.3656 12.188C78.7989 15.1664 79.2321 18.4157 79.6653 21.9357C80.1527 25.4558 80.6401 29.057 81.1275 32.7395C81.6691 36.422 82.1835 40.0233 82.6709 43.5433C83.2124 47.0633 83.6998 50.3396 84.1331 53.3723C84.5663 56.4049 84.9454 58.9502 85.2703 61.008Z" fill="#FFF9EE"/>
</svg>
