<svg width="145" height="194" viewBox="0 0 145 194" fill="none" xmlns="http://www.w3.org/2000/svg"><path d="M126.044 164.728v-5.118h10.804a41 41 0 0 1 2.518-.081q0 .65-.081 1.624v3.656h-2.437a42 42 0 0 0-2.6-.081zm13.647 28.349h-18.602q.162-3.573.162-8.204v-40.047q.081-3.981 0-7.23 0-3.249-.081-5.442h18.521v5.442a57 57 0 0 0-3.006-.081 53 53 0 0 0-2.924-.081h-7.88l1.3-3.168v5.361q0 2.762-.081 5.686v40.535q0 2.193.081 4.386l-1.3-2.518h10.804a57 57 0 0 1 3.006-.081zm-23.025 0H98.081v-11.372q.081-4.305.082-9.26v-33.224q0-4.305-.163-7.067h6.093a282 282 0 0 0-.163 3.818q0 2.193-.081 4.874v37.285q.081 3.818.081 6.823v4.549l-1.381-1.706h5.036a47 47 0 0 1 2.762-.081c.975-.054 5.398-.108 6.319-.162zm-30.172-35.579q.081-1.461.081-2.924v-2.681q.081-1.299.081-2.193 0-5.361-.568-8.123-.57-2.762-1.706-3.737-1.137-.974-2.762-.974-1.056 0-2.03.487-.895.488-1.626 1.95-.65 1.38-1.137 4.224-.487 2.762-.73 7.31-.245 4.55-.245 11.373 0 6.905.244 11.616.244 4.63.731 7.554.487 2.844 1.138 4.387.73 1.543 1.624 2.112.975.487 2.112.487 1.869 0 3.006-1.299 1.137-1.381 1.624-4.468.488-3.168.488-8.286v-3.168q0-1.461-.082-3.168h5.605q.082.894.082 1.787v3.575q0 4.06-.407 7.31-.324 3.25-1.137 5.687-.811 2.436-2.112 4.142a7.7 7.7 0 0 1-3.005 2.437q-1.706.813-4.062.813-2.437 0-4.305-.813-1.869-.812-3.33-2.843-1.382-2.112-2.275-5.686-.894-3.574-1.381-9.017-.406-5.442-.406-13.078 0-7.554.406-12.834.488-5.362 1.38-8.855.895-3.492 2.275-5.442 1.462-2.031 3.33-2.843 1.95-.813 4.387-.813 2.356 0 4.062.65a6.4 6.4 0 0 1 2.924 2.112q1.219 1.381 1.95 3.574.811 2.194 1.137 5.199.405 2.925.406 6.742 0 1.3-.081 2.6v2.518q0 1.219-.081 2.599a11 11 0 0 0-1.381-.081h-3.331q-.405 0-.893.081m-43.136-25.344h10.723q2.6 0 4.549.812 2.03.813 3.33 2.843 1.381 1.95 2.03 5.524.732 3.493.732 8.773 0 4.712-.569 8.042-.487 3.33-1.706 5.442-1.137 2.112-3.086 3.168-1.95 1.056-4.793 1.056l3.006-1.543v2.437l-3.006-1.381q2.438.162 4.062.65 1.624.487 2.68 1.706 1.056 1.137 1.787 3.574.731 2.355 1.3 6.417.488 2.6.812 5.118.407 2.518.731 4.711.407 2.113.731 3.574H61.23q-.488 0-.731-.243-.244-.245-.406-.813a129 129 0 0 1-.406-1.462 616 616 0 0 0-1.138-9.423q-.488-3.818-.974-6.092-.488-2.356-1.056-3.574-.57-1.218-1.381-1.544-.731-.406-1.787-.406h-.975q-.407 0-.894.081h-.812q-.406 0-.894.082H48.72l-.162-5.199h.65q.488 0 1.137.081h3.249q1.869 0 3.087-1.462 1.218-1.543 1.787-4.468.65-3.005.65-7.473 0-4.55-.406-7.311-.325-2.762-1.137-4.143-.731-1.461-1.869-1.949t-2.68-.488H51.32a7.4 7.4 0 0 0-1.056.082h-1.137q-.57 0-1.056.081h-.65l1.624-2.843v33.711q.082 7.798.163 14.215.081 6.336.243 10.56h-6.092v-8.935q.081-4.55.081-9.748.081-5.28.081-11.778 0-9.667-.08-16.734-.082-7.149-.082-13.728m-7.699 60.923h-6.093q.081-2.68.081-5.93.081-3.248.081-7.067v-34.929q0-3.9-.081-7.149 0-3.249-.081-5.848h6.092a946 946 0 0 0-.162 5.848v49.145q.081 3.25.162 5.93m-18.565-35.579q.081-1.461.081-2.924v-2.681q.082-1.299.082-2.193 0-5.361-.569-8.123t-1.706-3.737q-1.137-.974-2.762-.974-1.056 0-2.03.487-.894.488-1.625 1.95-.65 1.38-1.137 4.224-.488 2.762-.731 7.31-.244 4.55-.244 11.373 0 6.905.244 11.616.244 4.63.73 7.554.489 2.844 1.138 4.387.73 1.543 1.625 2.112.974.487 2.112.487 1.868 0 3.005-1.299 1.137-1.381 1.625-4.468.487-3.168.487-8.286v-3.168q0-1.461-.081-3.168h5.605q.081.894.081 1.787v3.575q0 4.06-.406 7.31-.325 3.25-1.137 5.687-.813 2.436-2.112 4.142a7.7 7.7 0 0 1-3.006 2.437q-1.706.813-4.061.813-2.437 0-4.306-.813-1.867-.812-3.33-2.843-1.38-2.112-2.275-5.686-.893-3.574-1.38-9.017-.407-5.442-.407-13.078 0-7.554.406-12.834.488-5.362 1.381-8.855.894-3.492 2.275-5.442 1.462-2.031 3.33-2.843 1.95-.813 4.387-.813 2.355 0 4.061.65a6.4 6.4 0 0 1 2.925 2.112q1.218 1.381 1.95 3.574.81 2.194 1.137 5.199.405 2.925.406 6.742 0 1.3-.082 2.6v2.518q0 1.219-.08 2.599a11 11 0 0 0-1.382-.081h-3.33q-.407 0-.894.081M121.089 66.12h10.722q2.6 0 4.549.812 2.03.812 3.331 2.843 1.38 1.95 2.031 5.523.73 3.495.731 8.773 0 4.712-.569 8.042-.488 3.33-1.706 5.443-1.137 2.112-3.087 3.168-1.949 1.056-4.792 1.056l3.005-1.543v2.437l-3.005-1.381q2.436.163 4.061.649 1.625.488 2.681 1.706 1.056 1.137 1.787 3.574.731 2.356 1.3 6.418a91 91 0 0 1 .812 5.117q.406 2.519.731 4.712.407 2.112.731 3.574h-5.442q-.488 0-.731-.244-.244-.243-.407-.812a158 158 0 0 1-.406-1.462 613 613 0 0 0-1.137-9.423q-.488-3.818-.975-6.092-.487-2.356-1.056-3.575-.568-1.218-1.381-1.543-.73-.406-1.787-.406h-.975q-.405 0-.893.081h-.812q-.406 0-.894.081h-1.056l-.162-5.198h.649q.487 0 1.138.08h3.249q1.868 0 3.087-1.461 1.218-1.545 1.787-4.468.65-3.006.65-7.474 0-4.548-.407-7.31-.324-2.761-1.137-4.143-.73-1.463-1.868-1.95-1.137-.487-2.681-.487h-1.706q-.486 0-1.056.081h-1.137a6.4 6.4 0 0 0-1.056.081h-.65l1.625-2.843v33.711q.081 7.799.162 14.216.082 6.336.244 10.56h-6.092v-8.936q.081-4.548.081-9.747.081-5.28.081-11.779 0-9.666-.081-16.734a1213 1213 0 0 1-.081-13.728m-18.07 32.574v-5.117h10.804a40 40 0 0 1 2.518-.082q0 .65-.081 1.625v3.655h-2.437a42 42 0 0 0-2.6-.08zm13.647 28.35H98.064q.162-3.575.162-8.204V78.792q.081-3.981 0-7.23 0-3.249-.081-5.443h18.521v5.442a57 57 0 0 0-3.006-.08 53 53 0 0 0-2.924-.082h-7.88l1.3-3.168v5.362q0 2.76-.081 5.686v40.534q0 2.194.081 4.387l-1.3-2.518h10.804a57 57 0 0 1 3.006-.082zM85.885 95.688h3.899q1.138-.081 2.194-.081l-3.25 4.792h-5.361q-.731 0-1.462.081h-1.38v-4.874q1.543 0 2.923.082zm.569-6.986q.081-1.056.081-2.112v-2.112q.082-1.056.082-1.706 0-4.793-.57-7.392-.487-2.6-1.624-3.574-1.055-1.056-2.762-1.056-1.462 0-2.68.975-1.137.893-2.031 3.493-.813 2.599-1.219 7.635-.405 4.955-.406 13.079 0 8.204.325 13.484.407 5.198 1.137 8.042.813 2.843 2.031 3.98a4.2 4.2 0 0 0 2.843 1.056q1.707 0 2.762-1.056 1.056-1.055 1.544-3.818.568-2.761.65-7.717.161-5.035-.082-12.753.163 0 .406-.163l.65-.487q.325-.243.569-.406.325-.244.487-.244h1.219l1.137-.162q.57-.081.975-.081.243 6.091.162 10.885t-.487 8.366q-.325 3.493-1.137 6.012-.732 2.436-1.95 3.98a7.7 7.7 0 0 1-2.924 2.193q-1.706.65-4.143.65-3.087 0-5.361-1.462-2.275-1.543-3.737-5.118-1.462-3.574-2.193-9.748-.65-6.173-.65-15.433 0-7.393.406-12.673.487-5.28 1.462-8.691.975-3.493 2.437-5.443 1.462-2.03 3.412-2.843 2.03-.812 4.549-.812 2.274 0 3.98.73a7.3 7.3 0 0 1 2.924 2.032q1.3 1.299 2.031 3.33.812 2.03 1.138 4.793.406 2.68.406 6.173 0 1.625-.081 3.168 0 1.462-.082 3.006h-1.3q-.65-.081-1.462-.081h-1.543q-.731 0-1.381.08M57.36 95.688h3.899q1.137-.081 2.193-.081l-3.25 4.792h-5.361q-.73 0-1.462.081H52v-4.874q1.542 0 2.924.082zm.568-6.986q.081-1.056.081-2.112v-2.112q.082-1.056.082-1.706 0-4.793-.569-7.392-.487-2.6-1.625-3.574-1.056-1.056-2.761-1.056-1.463 0-2.681.975-1.137.893-2.03 3.493-.813 2.599-1.22 7.635-.406 4.955-.406 13.079 0 8.204.325 13.484.406 5.198 1.138 8.042.812 2.843 2.03 3.98a4.2 4.2 0 0 0 2.843 1.056q1.706 0 2.762-1.056 1.056-1.055 1.544-3.818.568-2.761.65-7.717.161-5.035-.082-12.753.163 0 .407-.163l.65-.487q.324-.243.568-.406.326-.244.487-.244h1.219l1.137-.162q.57-.081.975-.081.244 6.091.162 10.885-.08 4.793-.487 8.366-.325 3.493-1.137 6.012-.732 2.436-1.95 3.98a7.7 7.7 0 0 1-2.924 2.193q-1.706.65-4.143.65-3.087 0-5.361-1.462-2.275-1.543-3.737-5.118-1.463-3.574-2.193-9.748-.65-6.173-.65-15.433 0-7.393.406-12.673.488-5.28 1.462-8.691.975-3.493 2.437-5.443 1.462-2.03 3.412-2.843 2.03-.812 4.549-.812 2.274 0 3.98.73a7.3 7.3 0 0 1 2.925 2.032q1.3 1.299 2.03 3.33.813 2.03 1.138 4.793.405 2.68.406 6.173 0 1.625-.081 3.168 0 1.462-.082 3.006h-1.3q-.65-.081-1.462-.081H59.31q-.731 0-1.38.08m-22.27 38.342h-6.093q.081-2.68.081-5.93.081-3.25.081-7.067v-34.93q0-3.899-.081-7.148 0-3.25-.081-5.849h6.092a946 946 0 0 0-.162 5.85v49.144a1128 1128 0 0 0 .162 5.93M6.312 98.612l.081-4.874 2.762.162h2.518q2.274-.081 3.574-1.218t1.787-3.655q.57-2.519.569-6.58 0-4.954-.488-7.392-.486-2.437-1.787-3.168-1.218-.812-3.492-.812-1.22 0-2.6.08-1.38 0-3.005.163l1.543-2.68q0 1.95-.081 5.28v45.002q.081 3.656.162 6.092l-1.462-3.33q1.625.162 2.924.243h2.518q1.788 0 3.006-.406a3.66 3.66 0 0 0 1.868-1.624q.732-1.22 1.056-3.493.325-2.357.325-6.011 0-4.387-.568-6.986-.57-2.6-1.95-3.737-1.38-1.218-3.736-1.219-.812 0-1.706.082H8.26q-.975 0-1.95.08m6.417 28.431H1.763q.243-5.849.243-13.241V84.559q0-5.524-.08-10.154 0-4.63-.163-8.286h11.129q2.842 0 4.792.731 2.03.65 3.25 2.356 1.218 1.706 1.787 4.874.568 3.168.568 8.123 0 3.574-.406 6.093-.325 2.436-1.137 4.061-.732 1.544-2.031 2.518-.974.812-2.6 1.138-1.543.243-3.574.406l2.762-1.219v2.194l-2.762-1.138q2.03.163 3.493.325 1.544.081 2.6.813 1.462.811 2.355 2.518.895 1.706 1.3 4.467.406 2.681.406 6.661 0 4.793-.568 7.961-.57 3.087-1.869 4.874-1.299 1.705-3.411 2.437-2.031.73-5.118.731M64.556 39.4q.731 0 1.706.082h11.779q.975-.081 1.787-.081l.081 4.955h-1.95a25 25 0 0 0-2.03-.082h-7.555q-1.056 0-2.112.082h-1.868zM85.27 61.009h-6.498q-.081-1.463-.406-4.224a262 262 0 0 0-.65-6.498q-.406-3.737-.894-8.042-.487-4.306-1.056-8.773a363 363 0 0 0-1.056-8.855 3419 3419 0 0 1-.893-8.123q-.406-3.492-.813-6.173-.325-2.68-.568-4.712a90 90 0 0 0-.325-3.493l1.056 1.95h-2.031l1.056-1.95q-.08 1.38-.325 3.412-.243 2.03-.65 4.793a296 296 0 0 1-.812 6.254 632 632 0 0 1-1.137 9.83q-.569 5.198-1.219 10.478a937 937 0 0 1-1.137 10.073q-.487 4.71-.894 8.367-.405 3.655-.568 5.686h-6.093q.488-3.087 1.138-7.555.65-4.467 1.38-9.747.732-5.28 1.463-10.804.731-5.605 1.462-10.885.73-5.36 1.3-9.829.65-4.55 1.056-7.717.405-3.168.568-4.387h9.017q.162 1.3.569 4.468.487 3.087 1.056 7.636a449 449 0 0 1 1.3 9.748q.73 5.28 1.462 10.804a1294 1294 0 0 1 1.543 10.803q.812 5.28 1.462 9.83.65 4.548 1.137 7.635" fill="#FFF9EE"/></svg>