<svg width="93" height="124" viewBox="0 0 93 124" fill="none" xmlns="http://www.w3.org/2000/svg">
<path d="M80.3261 105.429V102.152C80.9503 102.152 81.5572 102.152 82.1467 102.152C82.771 102.152 83.3605 102.152 83.9153 102.152C84.5049 102.152 85.0597 102.152 85.5799 102.152C86.1348 102.152 86.6896 102.152 87.2445 102.152C87.7993 102.118 88.3368 102.1 88.857 102.1C88.857 102.378 88.8397 102.724 88.805 103.141C88.805 103.557 88.805 103.973 88.805 104.389C88.805 104.805 88.805 105.169 88.805 105.481C88.3195 105.481 87.7993 105.481 87.2445 105.481C86.6896 105.447 86.1348 105.429 85.5799 105.429C85.0597 105.429 84.5049 105.429 83.9153 105.429C83.3258 105.429 82.7363 105.429 82.1467 105.429C81.5572 105.429 80.9503 105.429 80.3261 105.429ZM89.0651 123.583H77.1531C77.2224 122.058 77.2571 120.306 77.2571 118.33C77.2571 116.353 77.2571 114.186 77.2571 111.828C77.2571 109.435 77.2571 106.851 77.2571 104.077C77.2571 101.996 77.2571 100.002 77.2571 98.0949C77.2571 96.1529 77.2571 94.3496 77.2571 92.6851C77.2918 90.9858 77.2918 89.4426 77.2571 88.0555C77.2571 86.6684 77.2398 85.5066 77.2051 84.5703H89.0651C89.0651 84.7784 89.0651 85.0385 89.0651 85.3506C89.0651 85.628 89.0651 85.9054 89.0651 86.1829C89.0651 86.495 89.0651 86.8244 89.0651 87.1712C89.0651 87.518 89.0651 87.8128 89.0651 88.0555C88.4062 88.0208 87.7646 88.0035 87.1404 88.0035C86.5162 87.9688 85.892 87.9515 85.2678 87.9515C84.6436 87.9515 84.0367 87.9515 83.4472 87.9515C82.8576 87.9515 82.2855 87.9515 81.7306 87.9515C81.2104 87.9515 80.7076 87.9515 80.2221 87.9515L81.0544 85.9228C81.0544 87.0325 81.0544 88.1769 81.0544 89.3559C81.0544 90.535 81.037 91.7487 81.0024 92.9972C81.0024 94.2109 81.0024 95.442 81.0024 96.6904C81.0024 97.9042 81.0024 99.1006 81.0024 100.28C81.0024 101.424 81.0024 102.516 81.0024 103.557C81.0024 105.325 81.0024 106.955 81.0024 108.446C81.0024 109.903 81.0024 111.255 81.0024 112.504C81.0024 113.717 81.0024 114.862 81.0024 115.937C81.0024 116.977 81.0024 117.983 81.0024 118.954C81.0024 119.89 81.0197 120.827 81.0544 121.763L80.2221 120.15C80.7076 120.15 81.2104 120.15 81.7306 120.15C82.2855 120.15 82.8576 120.15 83.4472 120.15C84.0714 120.15 84.6783 120.15 85.2678 120.15C85.892 120.15 86.5162 120.15 87.1404 120.15C87.7993 120.116 88.4409 120.098 89.0651 120.098C89.0651 120.306 89.0651 120.584 89.0651 120.931C89.0651 121.243 89.0651 121.555 89.0651 121.867C89.0651 122.11 89.0651 122.404 89.0651 122.751C89.0651 123.063 89.0651 123.341 89.0651 123.583Z" fill="#1108BB"/>
<path d="M74.3216 123.583H62.4208C62.4208 123.133 62.4208 122.266 62.4208 120.983C62.4208 119.7 62.4208 118.139 62.4208 116.301C62.4555 114.463 62.4728 112.486 62.4728 110.371C62.4728 108.256 62.4728 106.158 62.4728 104.077C62.4728 100.887 62.4728 98.0602 62.4728 95.598C62.4728 93.1012 62.4728 90.9338 62.4728 89.0959C62.4728 87.2579 62.4381 85.7494 62.3688 84.5703H66.2701C66.2354 85.2639 66.2007 86.0788 66.1661 87.0152C66.1661 87.9515 66.1487 88.9918 66.114 90.1362C66.114 91.2806 66.114 92.5637 66.114 93.9855C66.114 95.3726 66.114 96.8985 66.114 98.563C66.114 100.193 66.114 101.996 66.114 103.973C66.114 105.533 66.114 107.181 66.114 108.915C66.114 110.648 66.114 112.348 66.114 114.012C66.1487 115.642 66.1661 117.099 66.1661 118.382C66.1661 119.665 66.1661 120.636 66.1661 121.295L65.2818 120.202C65.7326 120.202 66.2354 120.202 66.7903 120.202C67.3451 120.202 67.9173 120.202 68.5068 120.202C69.0964 120.168 69.6859 120.15 70.2754 120.15C70.8997 120.116 73.7321 120.081 74.3216 120.046C74.3216 120.289 74.3216 120.566 74.3216 120.879C74.3216 121.156 74.3216 121.451 74.3216 121.763C74.3216 122.075 74.3216 122.387 74.3216 122.699C74.3216 123.011 74.3216 123.306 74.3216 123.583Z" fill="#1108BB"/>
<path d="M55.0008 100.801C55.0355 100.176 55.0528 99.5522 55.0528 98.928C55.0528 98.3037 55.0528 97.7316 55.0528 97.2114C55.0875 96.6565 55.1048 96.1884 55.1048 95.8069C55.1048 93.5181 54.9834 91.7842 54.7407 90.6051C54.498 89.4261 54.1338 88.6285 53.6483 88.2123C53.1628 87.7962 52.5733 87.5881 51.8797 87.5881C51.4289 87.5881 50.9954 87.6922 50.5793 87.9002C50.1978 88.1083 49.8511 88.5244 49.5389 89.1487C49.2615 89.7382 49.0188 90.6398 48.8107 91.8536C48.6026 93.0326 48.4466 94.5932 48.3425 96.5351C48.2385 98.4771 48.1865 100.905 48.1865 103.818C48.1865 106.765 48.2385 109.245 48.3425 111.256C48.4466 113.233 48.6026 114.845 48.8107 116.094C49.0188 117.307 49.2615 118.244 49.5389 118.903C49.851 119.562 50.1978 120.012 50.5793 120.255C50.9954 120.463 51.4463 120.567 51.9317 120.567C52.7293 120.567 53.3709 120.29 53.8564 119.735C54.3419 119.145 54.6887 118.192 54.8968 116.874C55.1048 115.522 55.2089 113.753 55.2089 111.568C55.2089 110.84 55.2089 110.164 55.2089 109.54C55.2089 108.915 55.1915 108.239 55.1568 107.511C55.3649 107.511 55.5556 107.511 55.729 107.511C55.9371 107.511 56.1278 107.511 56.3012 107.511C56.5093 107.511 56.7347 107.511 56.9775 107.511C57.2549 107.511 57.5323 107.511 57.8097 107.511C58.1218 107.511 58.4339 107.511 58.7461 107.511C58.7807 107.892 58.7981 108.274 58.7981 108.655C58.7981 109.002 58.7981 109.366 58.7981 109.748C58.7981 110.094 58.7981 110.493 58.7981 110.944C58.7981 112.678 58.7114 114.238 58.538 115.626C58.3993 117.013 58.1565 118.226 57.8097 119.267C57.4629 120.307 57.0121 121.191 56.4573 121.92C55.9371 122.613 55.2955 123.133 54.5326 123.48C53.8044 123.827 52.9374 124 51.9317 124C50.8914 124 49.9724 123.827 49.1748 123.48C48.3772 123.133 47.6663 122.527 47.0421 121.66C46.4526 120.758 45.9671 119.544 45.5856 118.018C45.2041 116.493 44.9094 114.568 44.7013 112.244C44.5279 109.921 44.4412 107.129 44.4412 103.87C44.4412 100.645 44.5279 97.9049 44.7013 95.6508C44.9094 93.3621 45.2042 91.4721 45.5856 89.9809C45.9671 88.4898 46.4526 87.328 47.0421 86.4958C47.6663 85.6288 48.3772 85.0219 49.1748 84.6751C50.0071 84.3284 50.9434 84.155 51.9838 84.155C52.9894 84.155 53.8564 84.2937 54.5847 84.5711C55.3476 84.8485 55.9718 85.2994 56.4573 85.9236C56.9775 86.5131 57.3936 87.276 57.7057 88.2123C58.0525 89.1487 58.2952 90.2584 58.4339 91.5415C58.6073 92.7899 58.694 94.229 58.694 95.8589C58.694 96.4138 58.6767 96.9686 58.642 97.5235C58.642 98.0437 58.642 98.5812 58.642 99.136C58.642 99.6562 58.6247 100.211 58.59 100.801C58.3126 100.766 58.0178 100.749 57.7057 100.749C57.3936 100.749 57.0815 100.749 56.7694 100.749C56.5613 100.749 56.3532 100.749 56.1452 100.749C55.9718 100.749 55.781 100.749 55.573 100.749C55.3996 100.749 55.2089 100.766 55.0008 100.801Z" fill="#1108BB"/>
<path d="M27.3789 84.5703H34.2452C35.3549 84.5703 36.3259 84.7437 37.1582 85.0905C38.0251 85.4373 38.7361 86.0442 39.2909 86.9111C39.8804 87.7434 40.3139 88.9225 40.5913 90.4483C40.9035 91.9395 41.0595 93.8121 41.0595 96.0662C41.0595 98.0776 40.9381 99.7941 40.6954 101.216C40.4873 102.638 40.1232 103.799 39.603 104.701C39.1175 105.603 38.4586 106.279 37.6263 106.73C36.7941 107.181 35.7711 107.406 34.5573 107.406L36.482 106.418V107.978L34.5573 107.094C35.5977 107.163 36.4646 107.302 37.1582 107.51C37.8518 107.718 38.4239 108.082 38.8748 108.602C39.3256 109.088 39.707 109.851 40.0191 110.891C40.3313 111.897 40.6087 113.267 40.8514 115.001C41.0595 116.11 41.2329 117.203 41.3716 118.278C41.545 119.353 41.7011 120.358 41.8398 121.295C42.0132 122.196 42.1692 122.959 42.3079 123.583L38.8227 123.583C38.6147 123.583 38.4586 123.531 38.3546 123.427C38.2506 123.323 38.1639 123.15 38.0945 122.907C38.0251 122.665 37.9384 122.352 37.8344 121.971C37.557 119.543 37.3142 117.532 37.1062 115.937C36.8981 114.307 36.69 113.007 36.482 112.036C36.2739 111.03 36.0485 110.267 35.8057 109.747C35.563 109.227 35.2682 108.897 34.9214 108.758C34.6093 108.585 34.2279 108.498 33.777 108.498C33.5343 108.498 33.3262 108.498 33.1528 108.498C32.9794 108.498 32.7887 108.516 32.5806 108.55C32.4073 108.55 32.2339 108.55 32.0605 108.55C31.8871 108.55 31.6963 108.568 31.4883 108.602C31.3149 108.602 31.0895 108.602 30.812 108.602L30.708 105.273C30.812 105.273 30.9508 105.273 31.1241 105.273C31.3322 105.273 31.575 105.291 31.8524 105.325C32.1298 105.325 32.4419 105.325 32.7887 105.325C33.1355 105.325 33.517 105.325 33.9331 105.325C34.7307 105.325 35.3896 105.013 35.9098 104.389C36.4299 103.73 36.8114 102.776 37.0541 101.528C37.3316 100.245 37.4703 98.6497 37.4703 96.7424C37.4703 94.8004 37.3836 93.2399 37.2102 92.0609C37.0715 90.8818 36.8287 89.9975 36.482 89.408C36.1699 88.7837 35.7711 88.3676 35.2856 88.1595C34.8001 87.9515 34.2279 87.8474 33.569 87.8474C33.4649 87.8474 33.3089 87.8474 33.1008 87.8474C32.9274 87.8474 32.7194 87.8474 32.4766 87.8474C32.2685 87.8474 32.0431 87.8648 31.8004 87.8995C31.5576 87.8995 31.3149 87.8995 31.0721 87.8995C30.8294 87.8995 30.604 87.9168 30.3959 87.9515C30.2225 87.9515 30.0838 87.9515 29.9798 87.9515L31.0201 86.1309C31.0201 89.8414 31.0201 93.5347 31.0201 97.2106C31.0201 100.887 31.0201 104.389 31.0201 107.718C31.0548 111.047 31.0895 114.082 31.1241 116.821C31.1588 119.526 31.2108 121.78 31.2802 123.583H27.3789C27.3789 121.711 27.3789 119.804 27.3789 117.862C27.4136 115.92 27.4309 113.839 27.4309 111.619C27.4656 109.365 27.4829 106.851 27.4829 104.077C27.4829 99.9502 27.4656 96.3783 27.4309 93.3613C27.3962 90.3096 27.3789 87.3793 27.3789 84.5703Z" fill="#1108BB"/>
<path d="M22.4486 123.583H18.5472C18.5819 122.439 18.5993 121.173 18.5993 119.786C18.6339 118.399 18.6513 116.891 18.6513 115.261C18.6513 113.631 18.6513 111.88 18.6513 110.007C18.6513 108.134 18.6513 106.158 18.6513 104.077C18.6513 101.996 18.6513 100.02 18.6513 98.1469C18.6513 96.2743 18.6513 94.523 18.6513 92.8931C18.6513 91.2286 18.6339 89.7027 18.5993 88.3156C18.5993 86.9285 18.5819 85.68 18.5473 84.5703H22.4486C22.4139 85.68 22.3792 86.9285 22.3445 88.3156C22.3445 89.7027 22.3445 91.2112 22.3445 92.8411C22.3445 94.471 22.3445 96.2396 22.3445 98.1469C22.3445 100.02 22.3445 101.996 22.3445 104.077C22.3445 106.158 22.3445 108.134 22.3445 110.007C22.3445 111.845 22.3445 113.579 22.3445 115.209C22.3445 116.839 22.3445 118.364 22.3445 119.786C22.3792 121.173 22.4139 122.439 22.4486 123.583Z" fill="#1108BB"/>
<path d="M10.5596 100.801C10.5942 100.176 10.6116 99.5522 10.6116 98.928C10.6116 98.3037 10.6116 97.7316 10.6116 97.2114C10.6463 96.6565 10.6636 96.1884 10.6636 95.8069C10.6636 93.5181 10.5422 91.7842 10.2995 90.6051C10.0567 89.4261 9.6926 88.6285 9.20711 88.2123C8.72161 87.7962 8.13208 87.5881 7.43851 87.5881C6.98769 87.5881 6.55421 87.6922 6.13807 87.9002C5.75661 88.1083 5.40983 88.5244 5.09772 89.1487C4.82029 89.7382 4.57755 90.6398 4.36948 91.8536C4.16141 93.0326 4.00535 94.5932 3.90132 96.5351C3.79728 98.4771 3.74526 100.905 3.74526 103.818C3.74526 106.765 3.79728 109.245 3.90131 111.256C4.00535 113.233 4.1614 114.845 4.36947 116.094C4.57754 117.307 4.82029 118.244 5.09772 118.903C5.40982 119.562 5.7566 120.012 6.13807 120.255C6.55421 120.463 7.00503 120.567 7.49052 120.567C8.28812 120.567 8.92967 120.29 9.41517 119.735C9.90067 119.145 10.2475 118.192 10.4555 116.874C10.6636 115.522 10.7676 113.753 10.7676 111.568C10.7676 110.84 10.7676 110.164 10.7676 109.54C10.7676 108.915 10.7503 108.239 10.7156 107.511C10.9237 107.511 11.1144 107.511 11.2878 107.511C11.4959 107.511 11.6866 107.511 11.86 107.511C12.0681 107.511 12.2935 107.511 12.5362 107.511C12.8137 107.511 13.0911 107.511 13.3685 107.511C13.6806 107.511 13.9927 107.511 14.3048 107.511C14.3395 107.892 14.3568 108.274 14.3568 108.655C14.3568 109.002 14.3568 109.366 14.3568 109.748C14.3568 110.094 14.3568 110.493 14.3568 110.944C14.3568 112.678 14.2701 114.238 14.0968 115.626C13.958 117.013 13.7153 118.226 13.3685 119.267C13.0217 120.307 12.5709 121.191 12.016 121.92C11.4959 122.613 10.8543 123.133 10.0914 123.48C9.36315 123.827 8.49619 124 7.49052 124C6.45017 124 5.53119 123.827 4.73359 123.48C3.93599 123.133 3.22508 122.527 2.60087 121.66C2.01134 120.758 1.52584 119.544 1.14438 118.018C0.762922 116.493 0.468156 114.568 0.260086 112.244C0.0866948 109.921 -5.69952e-07 107.129 0 103.87C5.63896e-07 100.645 0.0866969 97.9049 0.260089 95.6508C0.46816 93.3621 0.762926 91.4721 1.14439 89.9809C1.52585 88.4898 2.01135 87.328 2.60088 86.4958C3.22509 85.6288 3.936 85.0219 4.7336 84.6751C5.56588 84.3284 6.5022 84.155 7.54255 84.155C8.54822 84.155 9.41518 84.2937 10.1434 84.5711C10.9063 84.8485 11.5306 85.2994 12.0161 85.9236C12.5362 86.5131 12.9524 87.276 13.2645 88.2123C13.6113 89.1487 13.854 90.2584 13.9927 91.5415C14.1661 92.7899 14.2528 94.229 14.2528 95.8589C14.2528 96.4138 14.2355 96.9686 14.2008 97.5235C14.2008 98.0437 14.2008 98.5812 14.2008 99.136C14.2008 99.6562 14.1834 100.211 14.1488 100.801C13.8713 100.766 13.5766 100.749 13.2645 100.749C12.9524 100.749 12.6403 100.749 12.3282 100.749C12.1201 100.749 11.912 100.749 11.7039 100.749C11.5306 100.749 11.3398 100.749 11.1318 100.749C10.9584 100.749 10.7676 100.766 10.5596 100.801Z" fill="#1108BB"/>
<path d="M77.1531 42.287H84.0194C85.1291 42.287 86.1001 42.4604 86.9324 42.8072C87.7993 43.1539 88.5102 43.7608 89.0651 44.6278C89.6546 45.4601 90.0881 46.6391 90.3655 48.165C90.6776 49.6561 90.8337 51.5288 90.8337 53.7829C90.8337 55.7942 90.7123 57.5108 90.4696 58.9326C90.2615 60.3544 89.8974 61.5161 89.3772 62.4178C88.8917 63.3194 88.2328 63.9956 87.4005 64.4465C86.5682 64.8973 85.5452 65.1227 84.3315 65.1227L86.2561 64.1343V65.6949L84.3315 64.8106C85.3718 64.8799 86.2388 65.0187 86.9324 65.2267C87.6259 65.4348 88.1981 65.7989 88.6489 66.3191C89.0998 66.8046 89.4812 67.5675 89.7933 68.6079C90.1054 69.6135 90.3829 70.9833 90.6256 72.7172C90.8337 73.827 91.0071 74.9193 91.1458 75.9943C91.3192 77.0694 91.4752 78.0751 91.6139 79.0114C91.7873 79.913 91.9434 80.6759 92.0821 81.3001L88.5969 81.3001C88.3888 81.3001 88.2328 81.2481 88.1288 81.1441C88.0247 81.0401 87.938 80.8667 87.8687 80.6239C87.7993 80.3812 87.7126 80.0691 87.6086 79.6876C87.3312 77.2601 87.0884 75.2488 86.8803 73.6536C86.6723 72.0237 86.4642 70.7232 86.2561 69.7522C86.0481 68.7466 85.8227 67.9836 85.5799 67.4635C85.3372 66.9433 85.0424 66.6138 84.6956 66.4751C84.3835 66.3017 84.002 66.215 83.5512 66.215C83.3085 66.215 83.1004 66.215 82.927 66.215C82.7536 66.215 82.5629 66.2324 82.3548 66.2671C82.1814 66.2671 82.008 66.2671 81.8346 66.2671C81.6612 66.2671 81.4705 66.2844 81.2624 66.3191C81.0891 66.3191 80.8636 66.3191 80.5862 66.3191L80.4822 62.99C80.5862 62.99 80.7249 62.99 80.8983 62.99C81.1064 62.99 81.3491 63.0073 81.6266 63.042C81.904 63.042 82.2161 63.042 82.5629 63.042C82.9097 63.042 83.2911 63.042 83.7073 63.042C84.5049 63.042 85.1638 62.7299 85.6839 62.1057C86.2041 61.4468 86.5856 60.4931 86.8283 59.2447C87.1058 57.9616 87.2445 56.3664 87.2445 54.4591C87.2445 52.5171 87.1578 50.9566 86.9844 49.7775C86.8457 48.5984 86.6029 47.7141 86.2561 47.1246C85.944 46.5004 85.5452 46.0843 85.0597 45.8762C84.5742 45.6681 84.002 45.5641 83.3432 45.5641C83.2391 45.5641 83.0831 45.5641 82.875 45.5641C82.7016 45.5641 82.4935 45.5641 82.2508 45.5641C82.0427 45.5641 81.8173 45.5814 81.5746 45.6161C81.3318 45.6161 81.0891 45.6161 80.8463 45.6161C80.6036 45.6161 80.3782 45.6334 80.1701 45.6681C79.9967 45.6681 79.858 45.6681 79.7539 45.6681L80.7943 43.8475C80.7943 47.5581 80.7943 51.2513 80.7943 54.9272C80.7943 58.6032 80.7943 62.1057 80.7943 65.4348C80.829 68.7639 80.8636 71.7983 80.8983 74.5379C80.933 77.2428 80.985 79.4969 81.0544 81.3001H77.1531C77.1531 79.4275 77.1531 77.5202 77.1531 75.5782C77.1877 73.6362 77.2051 71.5555 77.2051 69.3361C77.2398 67.082 77.2571 64.5678 77.2571 61.7936C77.2571 57.6668 77.2398 54.095 77.2051 51.0779C77.1704 48.0262 77.1531 45.0959 77.1531 42.287Z" fill="#1108BB"/>
<path d="M65.5824 63.146V59.8689C66.2066 59.8689 66.8135 59.8689 67.403 59.8689C68.0272 59.8689 68.6168 59.8689 69.1716 59.8689C69.7612 59.8689 70.316 59.8689 70.8362 59.8689C71.391 59.8689 71.9459 59.8689 72.5008 59.8689C73.0556 59.8342 73.5931 59.8169 74.1133 59.8169C74.1133 60.0943 74.096 60.4411 74.0613 60.8572C74.0613 61.2734 74.0613 61.6895 74.0613 62.1057C74.0613 62.5218 74.0613 62.8859 74.0613 63.198C73.5758 63.198 73.0556 63.198 72.5008 63.198C71.9459 63.1634 71.391 63.146 70.8362 63.146C70.316 63.146 69.7612 63.146 69.1716 63.146C68.5821 63.146 67.9926 63.146 67.403 63.146C66.8135 63.146 66.2066 63.146 65.5824 63.146ZM74.3214 81.3001H62.4093C62.4787 79.7743 62.5134 78.023 62.5134 76.0464C62.5134 74.0697 62.5134 71.9023 62.5134 69.5442C62.5134 67.1514 62.5134 64.5678 62.5134 61.7936C62.5134 59.7129 62.5134 57.7188 62.5134 55.8115C62.5134 53.8696 62.5134 52.0663 62.5134 50.4017C62.5481 48.7025 62.5481 47.1593 62.5134 45.7722C62.5134 44.385 62.4961 43.2233 62.4614 42.287H74.3214C74.3214 42.4951 74.3214 42.7551 74.3214 43.0672C74.3214 43.3447 74.3214 43.6221 74.3214 43.8995C74.3214 44.2116 74.3214 44.5411 74.3214 44.8879C74.3214 45.2346 74.3214 45.5294 74.3214 45.7722C73.6625 45.7375 73.0209 45.7201 72.3967 45.7201C71.7725 45.6855 71.1483 45.6681 70.5241 45.6681C69.8999 45.6681 69.293 45.6681 68.7035 45.6681C68.1139 45.6681 67.5417 45.6681 66.9869 45.6681C66.4667 45.6681 65.9639 45.6681 65.4784 45.6681L66.3107 43.6394C66.3107 44.7491 66.3107 45.8935 66.3107 47.0726C66.3107 48.2517 66.2933 49.4654 66.2587 50.7138C66.2587 51.9276 66.2587 53.1586 66.2587 54.4071C66.2587 55.6208 66.2586 56.8172 66.2586 57.9963C66.2586 59.1407 66.2586 60.233 66.2586 61.2734C66.2586 63.042 66.2586 64.6719 66.2586 66.163C66.2586 67.6195 66.2586 68.972 66.2586 70.2204C66.2586 71.4341 66.2586 72.5785 66.2586 73.6536C66.2586 74.6939 66.2586 75.6996 66.2586 76.6706C66.2586 77.6069 66.276 78.5432 66.3107 79.4795L65.4784 77.867C65.9639 77.867 66.4667 77.867 66.9869 77.867C67.5417 77.867 68.1139 77.867 68.7035 77.867C69.3277 77.867 69.9345 77.867 70.5241 77.867C71.1483 77.867 71.7725 77.867 72.3967 77.867C73.0556 77.8323 73.6972 77.815 74.3214 77.815C74.3214 78.023 74.3214 78.3005 74.3214 78.6472C74.3214 78.9594 74.3214 79.2715 74.3214 79.5836C74.3214 79.8263 74.3214 80.1211 74.3214 80.4679C74.3214 80.78 74.3214 81.0574 74.3214 81.3001Z" fill="#1108BB"/>
<path d="M54.6107 61.2209C54.9575 61.2209 55.3389 61.2209 55.7551 61.2209C56.2059 61.2209 56.6567 61.2209 57.1075 61.2209C57.593 61.1863 58.0612 61.1689 58.512 61.1689L56.4313 64.238C56.2232 64.238 55.9805 64.238 55.703 64.238C55.4603 64.238 55.1829 64.238 54.8708 64.238C54.5933 64.238 54.2812 64.238 53.9344 64.238C53.6223 64.238 53.3102 64.238 52.9981 64.238C52.686 64.238 52.3739 64.2553 52.0618 64.29C51.7497 64.29 51.4549 64.29 51.1775 64.29C51.1775 64.1859 51.1775 64.0472 51.1775 63.8738C51.1775 63.6658 51.1775 63.475 51.1775 63.3016C51.1775 63.1282 51.1775 62.9722 51.1775 62.8335C51.1775 62.5214 51.1775 62.2266 51.1775 61.9492C51.1775 61.6371 51.1775 61.377 51.1775 61.1689C51.8364 61.1689 52.4606 61.1863 53.0501 61.2209C53.6397 61.2209 54.1598 61.2209 54.6107 61.2209ZM54.9748 56.7474C55.0095 56.2966 55.0268 55.8458 55.0268 55.395C55.0268 54.9095 55.0268 54.4587 55.0268 54.0425C55.0615 53.5917 55.0788 53.2276 55.0788 52.9502C55.0788 50.9041 54.9575 49.3263 54.7147 48.2166C54.5066 47.1068 54.1599 46.3439 53.6744 45.9278C53.2235 45.477 52.634 45.2516 51.9058 45.2516C51.2815 45.2516 50.7094 45.4596 50.1892 45.8758C49.7037 46.2572 49.2702 47.0028 48.8887 48.1125C48.542 49.2222 48.2819 50.8521 48.1085 53.0022C47.9351 55.1175 47.8484 57.9092 47.8484 61.377C47.8484 64.8795 47.9177 67.7578 48.0565 70.0119C48.2298 72.2313 48.4726 73.9479 48.7847 75.1616C49.1315 76.3754 49.565 77.225 50.0851 77.7105C50.6053 78.1613 51.2122 78.3867 51.9058 78.3867C52.634 78.3867 53.2235 78.1613 53.6744 77.7105C54.1252 77.2597 54.4546 76.4447 54.6627 75.2657C54.9054 74.0866 55.0441 72.4394 55.0788 70.324C55.1482 68.1739 55.1308 65.4517 55.0268 62.1573C55.0962 62.1573 55.1829 62.1226 55.2869 62.0532C55.4256 61.9492 55.5643 61.8452 55.703 61.7411C55.8418 61.6371 55.9631 61.5504 56.0672 61.481C56.2059 61.377 56.3099 61.325 56.3793 61.325C56.6567 61.325 56.9168 61.325 57.1595 61.325C57.4023 61.2903 57.645 61.2556 57.8878 61.2209C58.1305 61.1863 58.3386 61.1689 58.512 61.1689C58.616 63.7698 58.6507 66.0933 58.616 68.1393C58.5813 70.1853 58.4773 71.9712 58.3039 73.4971C58.1652 74.9882 57.9224 76.2713 57.5757 77.3464C57.2636 78.3867 56.8474 79.2363 56.3272 79.8952C55.8071 80.5194 55.1829 80.9876 54.4546 81.2997C53.7264 81.5771 52.8421 81.7159 51.8017 81.7159C50.4839 81.7159 49.3396 81.4037 48.3686 80.7795C47.3976 80.1206 46.6 79.0283 45.9758 77.5024C45.3515 75.9766 44.8834 73.8959 44.5713 71.2603C44.2939 68.6248 44.1551 65.3303 44.1551 61.377C44.1551 58.2213 44.2418 55.5163 44.4152 53.2623C44.6233 51.0082 44.9354 49.1529 45.3516 47.6964C45.7677 46.2052 46.2879 45.0435 46.9121 44.2112C47.5363 43.3442 48.2645 42.7374 49.0968 42.3906C49.9638 42.0438 50.9348 41.8704 52.0098 41.8704C52.9808 41.8704 53.8304 42.0265 54.5587 42.3386C55.2869 42.616 55.9111 43.0495 56.4313 43.639C56.9861 44.1939 57.4196 44.9048 57.7317 45.7717C58.0785 46.6387 58.3213 47.6617 58.46 48.8408C58.6334 49.9852 58.7201 51.3029 58.7201 52.7941C58.7201 53.4877 58.7027 54.1639 58.668 54.8228C58.668 55.447 58.6507 56.0885 58.616 56.7474C58.3733 56.7474 58.0958 56.7474 57.7837 56.7474C57.5063 56.7128 57.1942 56.6954 56.8474 56.6954C56.5353 56.6954 56.2059 56.6954 55.8591 56.6954C55.547 56.6954 55.2522 56.7128 54.9748 56.7474Z" fill="#1108BB"/>
<path d="M36.3441 61.2209C36.6908 61.2209 37.0723 61.2209 37.4884 61.2209C37.9393 61.2209 38.3901 61.2209 38.8409 61.2209C39.3264 61.1863 39.7945 61.1689 40.2454 61.1689L38.1647 64.238C37.9566 64.238 37.7139 64.238 37.4364 64.238C37.1937 64.238 36.9163 64.238 36.6041 64.238C36.3267 64.238 36.0146 64.238 35.6678 64.238C35.3557 64.238 35.0436 64.238 34.7315 64.238C34.4194 64.238 34.1073 64.2553 33.7952 64.29C33.4831 64.29 33.1883 64.29 32.9109 64.29C32.9109 64.1859 32.9109 64.0472 32.9109 63.8738C32.9109 63.6658 32.9109 63.475 32.9109 63.3016C32.9109 63.1282 32.9109 62.9722 32.9109 62.8335C32.9109 62.5214 32.9109 62.2266 32.9109 61.9492C32.9109 61.6371 32.9109 61.377 32.9109 61.1689C33.5698 61.1689 34.194 61.1863 34.7835 61.2209C35.3731 61.2209 35.8932 61.2209 36.3441 61.2209ZM36.7082 56.7474C36.7429 56.2966 36.7602 55.8458 36.7602 55.395C36.7602 54.9095 36.7602 54.4587 36.7602 54.0425C36.7949 53.5917 36.8122 53.2276 36.8122 52.9502C36.8122 50.9041 36.6908 49.3263 36.4481 48.2166C36.24 47.1068 35.8932 46.3439 35.4077 45.9278C34.9569 45.477 34.3674 45.2516 33.6391 45.2516C33.0149 45.2516 32.4427 45.4596 31.9226 45.8758C31.4371 46.2572 31.0036 47.0028 30.6221 48.1125C30.2753 49.2222 30.0153 50.8521 29.8419 53.0022C29.6685 55.1175 29.5818 57.9092 29.5818 61.377C29.5818 64.8795 29.6511 67.7578 29.7898 70.0119C29.9632 72.2313 30.206 73.9479 30.5181 75.1616C30.8649 76.3754 31.2984 77.225 31.8185 77.7105C32.3387 78.1613 32.9456 78.3867 33.6391 78.3867C34.3674 78.3867 34.9569 78.1613 35.4077 77.7105C35.8586 77.2597 36.188 76.4447 36.3961 75.2657C36.6388 74.0866 36.7775 72.4394 36.8122 70.324C36.8816 68.1739 36.8642 65.4517 36.7602 62.1573C36.8295 62.1573 36.9162 62.1226 37.0203 62.0532C37.159 61.9492 37.2977 61.8452 37.4364 61.7411C37.5751 61.6371 37.6965 61.5504 37.8005 61.481C37.9393 61.377 38.0433 61.325 38.1127 61.325C38.3901 61.325 38.6502 61.325 38.8929 61.325C39.1357 61.2903 39.3784 61.2556 39.6212 61.2209C39.8639 61.1863 40.072 61.1689 40.2454 61.1689C40.3494 63.7698 40.3841 66.0933 40.3494 68.1393C40.3147 70.1853 40.2107 71.9712 40.0373 73.4971C39.8986 74.9882 39.6558 76.2713 39.3091 77.3464C38.9969 78.3867 38.5808 79.2363 38.0606 79.8952C37.5405 80.5194 36.9162 80.9876 36.188 81.2997C35.4598 81.5771 34.5755 81.7159 33.5351 81.7159C32.2173 81.7159 31.0729 81.4037 30.1019 80.7795C29.131 80.1206 28.3334 79.0283 27.7091 77.5024C27.0849 75.9766 26.6168 73.8959 26.3047 71.2603C26.0272 68.6248 25.8885 65.3303 25.8885 61.377C25.8885 58.2213 25.9752 55.5163 26.1486 53.2623C26.3567 51.0082 26.6688 49.1529 27.0849 47.6964C27.5011 46.2052 28.0213 45.0435 28.6455 44.2112C29.2697 43.3442 29.9979 42.7374 30.8302 42.3906C31.6972 42.0438 32.6682 41.8704 33.7432 41.8704C34.7142 41.8704 35.5638 42.0265 36.292 42.3386C37.0203 42.616 37.6445 43.0495 38.1647 43.639C38.7195 44.1939 39.153 44.9048 39.4651 45.7717C39.8119 46.6387 40.0546 47.6617 40.1934 48.8408C40.3667 49.9852 40.4534 51.3029 40.4534 52.7941C40.4534 53.4877 40.4361 54.1639 40.4014 54.8228C40.4014 55.447 40.3841 56.0885 40.3494 56.7474C40.1067 56.7474 39.8292 56.7474 39.5171 56.7474C39.2397 56.7128 38.9276 56.6954 38.5808 56.6954C38.2687 56.6954 37.9393 56.6954 37.5925 56.6954C37.2804 56.6954 36.9856 56.7128 36.7082 56.7474Z" fill="#1108BB"/>
<path d="M22.4486 81.3001H18.5472C18.5819 80.1557 18.5993 78.89 18.5993 77.5029C18.6339 76.1157 18.6513 74.6072 18.6513 72.9773C18.6513 71.3474 18.6513 69.5962 18.6513 67.7236C18.6513 65.8509 18.6513 63.8743 18.6513 61.7936C18.6513 59.7129 18.6513 57.7362 18.6513 55.8636C18.6513 53.9909 18.6513 52.2397 18.6513 50.6098C18.6513 48.9452 18.6339 47.4194 18.5993 46.0322C18.5993 44.6451 18.5819 43.3967 18.5473 42.287H22.4486C22.4139 43.3967 22.3792 44.6451 22.3445 46.0322C22.3445 47.4194 22.3445 48.9279 22.3445 50.5578C22.3445 52.1877 22.3445 53.9562 22.3445 55.8636C22.3445 57.7362 22.3445 59.7129 22.3445 61.7936C22.3445 63.8743 22.3445 65.8509 22.3445 67.7236C22.3445 69.5615 22.3445 71.2954 22.3445 72.9253C22.3445 74.5552 22.3445 76.081 22.3445 77.5029C22.3792 78.89 22.4139 80.1557 22.4486 81.3001Z" fill="#1108BB"/>
<path d="M3.65468 63.094L3.7067 59.9729C4.29623 60.0076 4.88576 60.0423 5.47529 60.077C6.0995 60.077 6.63702 60.077 7.08784 60.077C8.05883 60.0423 8.82175 59.7822 9.37661 59.2967C9.93146 58.8112 10.3129 58.031 10.521 56.9559C10.7637 55.8809 10.8851 54.4764 10.8851 52.7425C10.8851 50.6271 10.7811 49.0493 10.573 48.0089C10.3649 46.9686 9.98348 46.2923 9.42863 45.9802C8.90845 45.6334 8.16287 45.4601 7.19187 45.4601C6.6717 45.4601 6.11685 45.4774 5.52731 45.5121C4.93778 45.5121 4.29623 45.5467 3.60266 45.6161L4.591 43.8995C4.591 44.7318 4.57366 45.8588 4.53898 47.2807C4.53898 48.6678 4.53898 50.1936 4.53898 51.8582C4.53898 53.4881 4.53898 55.1353 4.53898 56.7999C4.53898 58.4298 4.53898 59.9556 4.53898 61.3774C4.53898 62.6605 4.53898 64.1517 4.53898 65.8509C4.53898 67.5502 4.53898 69.2841 4.53898 71.0527C4.53897 72.8213 4.53897 74.5032 4.53897 76.0984C4.57365 77.6589 4.60833 78.9593 4.64301 79.9997L3.70669 77.867C4.40026 77.9363 5.02447 77.9884 5.57932 78.023C6.16886 78.023 6.70637 78.023 7.19187 78.023C7.95479 78.023 8.59634 77.9363 9.11652 77.7629C9.63669 77.5549 10.0355 77.2081 10.3129 76.7226C10.625 76.2024 10.8504 75.4568 10.9892 74.4858C11.1279 73.4802 11.1972 72.1971 11.1972 70.6365C11.1972 68.7639 11.0758 67.2727 10.8331 66.163C10.5904 65.0533 10.1742 64.2557 9.58468 63.7702C8.99515 63.25 8.19754 62.99 7.19187 62.99C6.84509 62.99 6.48096 63.0073 6.0995 63.042C5.71804 63.042 5.31924 63.042 4.9031 63.042C4.48696 63.042 4.07082 63.0593 3.65468 63.094ZM7.76406 81.3001H0.741693C0.845729 78.8033 0.897747 75.977 0.897747 72.8213C0.897748 69.6309 0.897748 65.955 0.897749 61.7936C0.89775 59.0193 0.89775 56.4531 0.89775 54.095C0.897751 51.7368 0.880412 49.5694 0.845734 47.5928C0.845734 45.6161 0.811056 43.8475 0.7417 42.287H7.8681C9.08185 42.287 10.1049 42.443 10.9371 42.7551C11.8041 43.0326 12.4977 43.5354 13.0178 44.2636C13.538 44.9919 13.9195 46.0322 14.1622 47.3847C14.405 48.7372 14.5263 50.4711 14.5263 52.5865C14.5263 54.1123 14.4397 55.4127 14.2663 56.4878C14.1275 57.5281 13.8848 58.3951 13.538 59.0886C13.2259 59.7475 12.7924 60.2851 12.2376 60.7012C11.8214 61.048 11.2666 61.2907 10.573 61.4294C9.91412 61.5335 9.1512 61.6202 8.28424 61.6895L10.0528 60.9093V62.3137L8.28424 61.5855C9.1512 61.6548 9.89678 61.7242 10.521 61.7936C11.1799 61.8282 11.7347 62.0016 12.1856 62.3137C12.8098 62.6605 13.3126 63.198 13.6941 63.9263C14.0755 64.6545 14.353 65.6082 14.5263 66.7872C14.6997 67.9316 14.7864 69.3534 14.7864 71.0527C14.7864 73.0987 14.6651 74.7979 14.4223 76.1504C14.1796 77.4682 13.7808 78.5085 13.2259 79.2715C12.671 79.9997 11.9428 80.5199 11.0412 80.832C10.1742 81.1441 9.08184 81.3001 7.76406 81.3001Z" fill="#1108BB"/>
<path d="M4.07082 25.1765C4.38293 25.1765 4.74705 25.1938 5.16319 25.2285C5.57933 25.2285 6.01281 25.2285 6.46363 25.2285C6.94912 25.2285 7.39994 25.2285 7.81608 25.2285C8.2669 25.2285 8.64836 25.2285 8.96047 25.2285C9.30725 25.2285 9.68871 25.2285 10.1049 25.2285C10.521 25.2285 10.9545 25.2285 11.4053 25.2285C11.8561 25.2285 12.2896 25.2285 12.7057 25.2285C13.1219 25.1938 13.5033 25.1765 13.8501 25.1765L13.9021 28.3496C13.5207 28.3496 13.1045 28.3496 12.6537 28.3496C12.2376 28.3149 11.8041 28.2975 11.3533 28.2975C10.9025 28.2975 10.469 28.2975 10.0528 28.2975C9.67138 28.2975 9.30725 28.2975 8.96047 28.2975C8.64836 28.2975 8.28424 28.2975 7.8681 28.2975C7.45196 28.2975 7.00114 28.2975 6.51564 28.2975C6.06483 28.2975 5.61401 28.3149 5.16319 28.3496C4.74705 28.3496 4.34825 28.3496 3.96678 28.3496L4.07082 25.1765ZM17.3353 39.0132H13.1739C13.1392 38.3889 13.0525 37.4873 12.9138 36.3082C12.8098 35.0945 12.671 33.7074 12.4977 32.1468C12.3243 30.5516 12.1335 28.8351 11.9255 26.9971C11.7174 25.1592 11.492 23.2865 11.2492 21.3792C11.0412 19.4372 10.8158 17.5473 10.573 15.7093C10.3649 13.8367 10.1742 12.1027 10.0008 10.5075C9.82743 9.01638 9.65404 7.6986 9.48065 6.55421C9.34193 5.40983 9.22056 4.40415 9.11652 3.53719C9.04717 2.63556 8.97781 1.88997 8.90845 1.30044L9.58468 2.54886L8.28424 2.54886L8.96047 1.30044C8.92579 1.88997 8.85643 2.61822 8.7524 3.48518C8.64836 4.35214 8.50965 5.37515 8.33626 6.55421C8.19754 7.73328 8.02416 9.06839 7.81609 10.5596C7.60801 12.5015 7.36526 14.5996 7.08784 16.8537C6.84509 19.0731 6.585 21.3099 6.30757 23.5639C6.06482 25.818 5.82208 27.9681 5.57933 30.0141C5.37126 32.0255 5.18052 33.8114 5.00713 35.3719C4.83374 36.9325 4.71237 38.1462 4.64301 39.0132L0.741693 39.0132C0.949763 37.6954 1.19251 36.0828 1.46994 34.1755C1.74737 32.2682 2.04214 30.1875 2.35424 27.9334C2.66635 25.6793 2.97845 23.3732 3.29056 21.0151C3.60266 18.6223 3.91477 16.2988 4.22687 14.0447C4.53898 11.756 4.81641 9.65793 5.05915 7.75062C5.33658 5.80863 5.56199 4.16141 5.73539 2.80895C5.90878 1.45649 6.03015 0.520177 6.09951 0L11.8735 1.00955e-06C11.9428 0.554856 12.0642 1.50851 12.2376 2.86097C12.4456 4.17875 12.6711 5.80863 12.9138 7.75062C13.1912 9.65793 13.4687 11.7386 13.7461 13.9927C14.0582 16.2468 14.3703 18.5529 14.6824 20.9111C15.0292 23.2692 15.3586 25.5753 15.6707 27.8294C16.0175 30.0835 16.3296 32.1815 16.607 34.1235C16.8845 36.0655 17.1272 37.6954 17.3353 39.0132Z" fill="#1108BB"/>
</svg>
