<svg width="93" height="124" viewBox="0 0 93 124" fill="none" xmlns="http://www.w3.org/2000/svg"><path d="M80.326 105.429v-3.277h6.919a26 26 0 0 1 1.612-.052q0 .416-.052 1.041v2.34h-1.56a27 27 0 0 0-1.665-.052zm8.74 18.154H77.152q.105-2.288.104-5.253V92.685q.052-2.549 0-4.63a97 97 0 0 0-.052-3.485h11.86v3.485q-.988-.052-1.925-.052a34 34 0 0 0-1.872-.052h-5.046l.832-2.028v3.433q0 1.769-.052 3.641v25.957q0 1.405.052 2.809l-.832-1.613h6.918q.989-.052 1.925-.052v3.485m-14.742 0H62.42v-7.282q.052-2.757.052-5.93V89.096q0-2.757-.104-4.526h3.901q-.053 1.041-.104 2.445 0 1.405-.052 3.121v23.876q.052 2.445.052 4.37v2.913l-.884-1.093h3.225q.885-.052 1.768-.052c.625-.034 3.457-.069 4.047-.104v3.537M55 100.801q.053-.937.053-1.873v-1.717q.052-.832.052-1.404 0-3.433-.364-5.202t-1.093-2.393-1.768-.624q-.677 0-1.3.312-.573.312-1.041 1.249-.416.884-.728 2.705-.312 1.769-.468 4.681t-.157 7.283q0 4.421.157 7.438.156 2.965.468 4.838.312 1.82.728 2.809.468.988 1.04 1.352.624.312 1.353.312 1.196 0 1.924-.832.73-.885 1.04-2.861.313-2.028.313-5.306v-2.028q0-.937-.052-2.029h3.589q.052.572.052 1.144v2.289q0 2.6-.26 4.682-.208 2.08-.728 3.641t-1.353 2.653a4.93 4.93 0 0 1-1.924 1.56q-1.094.52-2.601.52-1.56 0-2.757-.52t-2.133-1.82q-.885-1.353-1.456-3.642-.573-2.288-.885-5.774-.26-3.485-.26-8.374 0-4.837.26-8.22.312-3.432.885-5.67.572-2.235 1.456-3.484.936-1.3 2.133-1.82 1.248-.522 2.809-.521 1.508 0 2.6.416a4.1 4.1 0 0 1 1.873 1.353q.78.885 1.249 2.288.52 1.405.728 3.33.26 1.872.26 4.317 0 .832-.052 1.665v1.612q0 .78-.052 1.665a7 7 0 0 0-.884-.052h-2.133q-.26 0-.572.052M27.379 84.57h6.866q1.664 0 2.913.52 1.3.52 2.133 1.821.885 1.248 1.3 3.537.469 2.238.468 5.618.001 3.017-.364 5.15-.312 2.133-1.092 3.485-.728 1.353-1.977 2.029-1.248.676-3.069.676l1.925-.988v1.56l-1.925-.884q1.56.104 2.601.416a3.6 3.6 0 0 1 1.717 1.092q.676.729 1.144 2.289.468 1.509.832 4.11.313 1.664.52 3.277.26 1.612.469 3.017.26 1.352.468 2.288h-3.485q-.312 0-.468-.156t-.26-.52-.26-.936q-.416-3.642-.729-6.034-.312-2.445-.624-3.901-.312-1.509-.676-2.289t-.885-.989q-.468-.26-1.144-.26h-.624a3.6 3.6 0 0 0-.572.052h-.52q-.261 0-.573.052h-.676l-.104-3.329h.416q.312 0 .728.052h2.081q1.197 0 1.977-.936.78-.989 1.144-2.861.416-1.924.416-4.786 0-2.913-.26-4.681-.208-1.77-.728-2.653-.468-.936-1.196-1.249-.729-.312-1.717-.312h-1.092q-.312 0-.677.053h-.728q-.364 0-.676.051h-.416l1.04-1.82v21.587q.053 4.994.104 9.103.053 4.058.156 6.762h-3.9v-5.721q.052-2.913.052-6.243.052-3.381.052-7.542 0-6.19-.052-10.716a774 774 0 0 1-.052-8.79m-4.931 39.012h-3.902q.052-1.716.052-3.797.052-2.08.052-4.525V92.893q0-2.496-.052-4.577 0-2.081-.052-3.746h3.902q-.053 1.665-.105 3.746v31.47a721 721 0 0 0 .105 3.797M10.56 100.801q.052-.937.052-1.873v-1.717q.052-.832.052-1.404 0-3.433-.364-5.202t-1.093-2.393-1.768-.624q-.677 0-1.3.312-.574.312-1.041 1.249-.416.884-.729 2.705-.312 1.769-.468 4.681t-.156 7.283q0 4.421.156 7.438.156 2.965.468 4.838.313 1.82.729 2.809.468.988 1.04 1.352.624.312 1.353.312 1.196 0 1.924-.832.73-.885 1.04-2.861.313-2.028.313-5.306v-2.028q0-.937-.052-2.029h3.589q.052.572.052 1.144v2.289q0 2.6-.26 4.682-.208 2.08-.729 3.641-.52 1.56-1.352 2.653a4.93 4.93 0 0 1-1.925 1.56Q9 124 7.491 124q-1.56 0-2.757-.52T2.6 121.66q-.885-1.353-1.457-3.642t-.884-5.774Q0 108.759 0 103.87q0-4.837.26-8.22.312-3.432.884-5.67.572-2.235 1.457-3.484.936-1.3 2.133-1.82 1.248-.522 2.809-.521 1.508 0 2.6.416a4.1 4.1 0 0 1 1.873 1.353q.78.885 1.249 2.288.52 1.405.728 3.33.26 1.872.26 4.317 0 .832-.052 1.665v1.612q0 .78-.052 1.665a7 7 0 0 0-.884-.052h-2.133q-.26 0-.572.052m66.593-58.514h6.866q1.665 0 2.913.52 1.3.52 2.133 1.82.885 1.25 1.3 3.538.47 2.237.469 5.618 0 3.017-.364 5.15-.313 2.132-1.093 3.485-.728 1.352-1.977 2.029-1.248.675-3.068.676l1.924-.989v1.56l-1.924-.883q1.56.104 2.6.416a3.6 3.6 0 0 1 1.717 1.092q.675.728 1.144 2.289.468 1.507.833 4.11a58 58 0 0 1 .52 3.276q.26 1.613.468 3.017.26 1.353.468 2.29h-3.485q-.312 0-.468-.157-.156-.156-.26-.52t-.26-.936q-.416-3.642-.729-6.034-.312-2.444-.624-3.902-.312-1.508-.676-2.288t-.884-.989q-.468-.26-1.145-.26h-.624a3.5 3.5 0 0 0-.572.052h-.52a3.5 3.5 0 0 0-.573.052h-.676l-.104-3.329h.416q.312 0 .729.052h2.08q1.197 0 1.977-.936.78-.99 1.144-2.861.416-1.925.416-4.786 0-2.913-.26-4.681-.207-1.77-.728-2.653-.468-.936-1.196-1.249-.729-.312-1.717-.312h-1.092q-.312 0-.676.052h-.729q-.364 0-.676.052h-.416l1.04-1.82v21.587q.053 4.993.104 9.103.053 4.058.156 6.762h-3.9v-5.722q.051-2.913.051-6.242.052-3.381.052-7.542 0-6.19-.052-10.716a774 774 0 0 1-.052-8.791M65.582 63.146v-3.277h6.919a26 26 0 0 1 1.612-.052q0 .416-.052 1.04v2.341h-1.56a27 27 0 0 0-1.665-.052zm8.74 18.154H62.408q.105-2.289.104-5.254V50.402q.053-2.55 0-4.63 0-2.08-.052-3.485h11.86v3.485q-.988-.052-1.924-.052a34 34 0 0 0-1.873-.052h-5.046l.833-2.029v3.434q0 1.768-.052 3.64v25.958q0 1.404.052 2.808l-.833-1.612h6.919q.988-.052 1.924-.052V81.3M54.61 61.22h2.497q.729-.051 1.405-.051l-2.08 3.069h-3.434q-.468 0-.936.052h-.884v-3.121q.988 0 1.872.052zm.365-4.473q.052-.675.052-1.352v-1.353q.052-.675.052-1.092 0-3.07-.364-4.733-.312-1.665-1.04-2.29-.676-.675-1.77-.675-.935 0-1.716.624-.728.572-1.3 2.236-.52 1.665-.78 4.89-.26 3.173-.26 8.375 0 5.253.208 8.635.26 3.33.728 5.15.52 1.82 1.3 2.548.78.677 1.82.677 1.093 0 1.77-.677.676-.675.988-2.444.363-1.77.416-4.942.105-3.225-.052-8.167.105 0 .26-.104l.416-.312q.208-.156.364-.26.209-.156.312-.156h.78l.729-.104q.363-.052.624-.052.156 3.9.104 6.97t-.312 5.358q-.209 2.236-.728 3.85-.468 1.56-1.249 2.548a4.95 4.95 0 0 1-1.872 1.405q-1.093.416-2.653.416-1.977 0-3.433-.936-1.457-.99-2.393-3.278T44.57 71.26q-.416-3.953-.416-9.883 0-4.733.26-8.115.312-3.382.937-5.566.624-2.235 1.56-3.485.936-1.3 2.185-1.82 1.3-.52 2.913-.52 1.455 0 2.549.468a4.7 4.7 0 0 1 1.872 1.3q.833.832 1.3 2.133.52 1.3.729 3.069.26 1.716.26 3.953 0 1.04-.052 2.029 0 .937-.052 1.924h-.832a8 8 0 0 0-.937-.052h-.988q-.468 0-.884.052m-18.63 4.473h2.497q.727-.051 1.404-.051l-2.08 3.069H34.73q-.468 0-.936.052h-.884v-3.121q.989 0 1.872.052zm.364-4.473q.052-.675.052-1.352v-1.353q.052-.675.052-1.092 0-3.07-.364-4.733-.312-1.665-1.04-2.29-.676-.675-1.769-.675-.936 0-1.716.624-.73.572-1.3 2.236-.522 1.665-.781 4.89-.26 3.173-.26 8.375 0 5.253.208 8.635.26 3.33.728 5.15.52 1.82 1.3 2.548.78.677 1.821.677 1.092 0 1.769-.677.675-.675.988-2.444.365-1.77.416-4.942.104-3.225-.052-8.167.105 0 .26-.104l.416-.312q.209-.156.364-.26.209-.156.313-.156h.78l.728-.104q.364-.052.624-.052.157 3.9.104 6.97-.051 3.069-.312 5.358-.207 2.236-.728 3.85-.468 1.56-1.248 2.548a4.95 4.95 0 0 1-1.873 1.405q-1.093.416-2.653.416-1.977 0-3.433-.936-1.457-.99-2.393-3.278t-1.404-6.242q-.416-3.953-.416-9.883 0-4.733.26-8.115.312-3.382.936-5.566.624-2.235 1.56-3.485.937-1.3 2.185-1.82 1.3-.52 2.913-.52 1.456 0 2.549.468a4.7 4.7 0 0 1 1.873 1.3q.831.832 1.3 2.133.52 1.3.728 3.069.26 1.716.26 3.953 0 1.04-.052 2.029 0 .937-.052 1.924h-.832a8 8 0 0 0-.936-.052h-.989q-.468 0-.884.052M22.449 81.3h-3.902q.052-1.716.052-3.797.052-2.08.052-4.526V50.61q0-2.497-.052-4.578 0-2.08-.052-3.745h3.902q-.053 1.665-.105 3.745v31.471q.052 2.08.105 3.797M3.655 63.094l.052-3.121 1.768.104h1.613q1.456-.052 2.289-.78.832-.729 1.144-2.341.364-1.613.364-4.214 0-3.173-.312-4.733T9.429 45.98q-.78-.52-2.237-.52-.78 0-1.665.052-.884 0-1.924.104L4.59 43.9q0 1.248-.052 3.38v28.818q.053 2.34.104 3.902l-.936-2.133q1.04.104 1.872.156h1.613q1.144 0 1.925-.26.78-.312 1.196-1.04.468-.78.676-2.237.208-1.509.208-3.85 0-2.808-.364-4.473-.365-1.665-1.248-2.393-.885-.78-2.393-.78-.52 0-1.093.052H4.904q-.624 0-1.248.052M7.765 81.3H.741q.156-3.745.156-8.479V54.095q0-3.537-.052-6.502 0-2.966-.104-5.306h7.126q1.82 0 3.07.468a3.98 3.98 0 0 1 2.08 1.509q.78 1.092 1.144 3.12.364 2.03.364 5.203 0 2.288-.26 3.9-.208 1.561-.728 2.602a4.25 4.25 0 0 1-1.3 1.612q-.625.52-1.665.728-.989.156-2.289.26l1.769-.78v1.405l-1.769-.728q1.3.103 2.237.208.989.051 1.665.52.936.52 1.508 1.612t.832 2.861q.26 1.717.26 4.266.001 3.069-.364 5.097-.363 1.977-1.196 3.121-.832 1.093-2.185 1.561-1.301.468-3.277.468M4.07 25.177q.47 0 1.093.052h7.542q.625-.052 1.145-.052l.052 3.173h-1.248q-.625-.053-1.3-.053H6.515q-.676 0-1.353.053H3.967zm13.265 13.836h-4.161a48 48 0 0 0-.26-2.705q-.156-1.82-.416-4.161a1180 1180 0 0 0-.572-5.15 408 408 0 0 0-.677-5.618 232 232 0 0 0-.676-5.67q-.312-2.808-.572-5.201a117 117 0 0 0-.52-3.954q-.209-1.716-.364-3.017A58 58 0 0 0 8.908 1.3l.677 1.249h-1.3L8.96 1.3q-.052.885-.208 2.185-.155 1.3-.416 3.07-.207 1.767-.52 4.005-.312 2.912-.728 6.294a500 500 0 0 1-.78 6.71 601 601 0 0 1-.729 6.45 719 719 0 0 1-.572 5.358q-.26 2.34-.364 3.641H.742q.312-1.977.728-4.837.416-2.862.884-6.243t.937-6.918q.468-3.59.936-6.97.469-3.434.832-6.294.417-2.913.676-4.942T6.1 0h5.774q.103.833.364 2.861.312 1.977.676 4.89.416 2.86.832 6.242.468 3.381.936 6.918.52 3.537.989 6.918.52 3.382.936 6.294.416 2.914.728 4.89" fill="#1108BB"/></svg>